<svg xmlns="http://www.w3.org/2000/svg" width="1567.964" height="866.16" style="max-height:500px" viewBox="172.778 64.8 1567.964 866.16"><defs><clipPath id="a"><path d="M0 1080h1920V0H0Z" data-index="0"></path></clipPath><clipPath id="b"><path d="M645.97 845.573h1146.09V463.275H645.97Z" data-index="1"></path></clipPath><clipPath id="c"><path d="M158.595 1013.39h1629.36V657.303H158.596Z" data-index="2"></path></clipPath><clipPath id="d"><path d="m693.594 550.952-3.817-66.4 21.93-1.261 3.817 66.4Z" data-index="3"></path></clipPath><clipPath id="e"><path d="M0 1080h1920V0H0Z" data-index="4"></path></clipPath><clipPath id="f"><path d="m712.487 569.664-26.665-3.191 5.523-46.147 26.665 3.191Z" data-index="5"></path></clipPath><clipPath id="g"><path d="M0 1080h1920V0H0Z" data-index="6"></path></clipPath><clipPath id="h"><path d="m1079.856 498.634-18.403-63.913 21.109-6.078 18.402 63.913Z" data-index="7"></path></clipPath><clipPath id="i"><path d="M0 1080h1920V0H0Z" data-index="8"></path></clipPath><clipPath id="j"><path d="m1107.328 508.1-25.179 9.343-16.168-43.573 25.179-9.343Z" data-index="9"></path></clipPath><clipPath id="k"><path d="M0 1080h1920V0H0Z" data-index="10"></path></clipPath><clipPath id="l"><path d="M959.54 469.891h199.519V267.394h-199.52Z" data-index="11"></path></clipPath><clipPath id="m"><path d="m771.125 530.611-3.818-66.4 21.93-1.26 3.818 66.4Z" data-index="12"></path></clipPath><clipPath id="n"><path d="M0 1080h1920V0H0Z" data-index="13"></path></clipPath><clipPath id="o"><path d="m790.017 549.324-26.665-3.191 5.523-46.148 26.665 3.192Z" data-index="14"></path></clipPath><clipPath id="p"><path d="M0 1080h1920V0H0Z" data-index="15"></path></clipPath><clipPath id="q"><path d="m900.833 510.274-3.817-66.4 21.93-1.262 3.817 66.4Z" data-index="16"></path></clipPath><clipPath id="r"><path d="M0 1080h1920V0H0Z" data-index="17"></path></clipPath><clipPath id="s"><path d="m919.726 528.986-26.666-3.191 5.523-46.147 26.666 3.19Z" data-index="18"></path></clipPath><clipPath id="t"><path d="M0 1080h1920V0H0Z" data-index="19"></path></clipPath><clipPath id="u"><path d="m404.55 695.828 26.538-60.986 20.142 8.764-26.538 60.987Z" data-index="20"></path></clipPath><clipPath id="v"><path d="M0 1080h1920V0H0Z" data-index="21"></path></clipPath><clipPath id="w"><path d="m412.974 721.05-22.36-14.874 25.74-38.697 22.36 14.874Z" data-index="22"></path></clipPath><clipPath id="x"><path d="M0 1080h1920V0H0Z" data-index="23"></path></clipPath><clipPath id="y"><path d="m512.455 695.904-3.818-66.4 21.93-1.261 3.818 66.4Z" data-index="24"></path></clipPath><clipPath id="z"><path d="M0 1080h1920V0H0Z" data-index="25"></path></clipPath><clipPath id="A"><path d="m531.347 714.616-26.665-3.191 5.523-46.147 26.665 3.191Z" data-index="26"></path></clipPath><clipPath id="B"><path d="M0 1080h1920V0H0Z" data-index="27"></path></clipPath><clipPath id="C"><path d="m600.703 630.89-3.818-66.4 21.93-1.261 3.818 66.4Z" data-index="28"></path></clipPath><clipPath id="D"><path d="M0 1080h1920V0H0Z" data-index="29"></path></clipPath><clipPath id="E"><path d="m622.8 647.967-26.854.403-.697-46.471 26.853-.403Z" data-index="30"></path></clipPath><clipPath id="F"><path d="M0 1080h1920V0H0Z" data-index="31"></path></clipPath><clipPath id="G"><path d="M801.426 477.291h206.81V267.394h-206.81Z" data-index="32"></path></clipPath><clipPath id="H"><path d="M651.79 498.648h218.662v-221.93H651.79Z" data-index="33"></path></clipPath><clipPath id="I"><path d="M499.32 562.1h230.517V328.14H499.32Z" data-index="34"></path></clipPath><clipPath id="J"><path d="M588.315 348.5 689.57 580.84 383.193 714.36 281.939 482.018Z" data-index="35"></path></clipPath><clipPath id="K"><path d="M0 1080h1920V0H0Z" data-index="36"></path></clipPath><clipPath id="L"><path d="M425.66 294.565h36.825V257.74h-36.826Z" data-index="37"></path></clipPath><clipPath id="M"><path d="M326.732 341.849h119.67V209.41h-119.67Z" data-index="38"></path></clipPath><clipPath id="N"><path d="M193.702 341.849h119.67V209.41h-119.67Z" data-index="39"></path></clipPath><clipPath id="O"><path d="M187.106 634.047h289.71V294.316h-289.71Z" data-index="40"></path></clipPath><clipPath id="P"><path d="M186.089 294.565h36.825v-36.826h-36.825Z" data-index="41"></path></clipPath><clipPath id="Q"><path d="M362.388 484.26h71.696v-78.28h-71.696Z" data-index="42"></path></clipPath><clipPath id="R"><path d="M370.355 475.54h55.762V414.7h-55.762Z" data-index="43"></path></clipPath><clipPath id="S"><path d="M388.74 443.128h18.992V422.53H388.74Z" data-index="44"></path></clipPath><clipPath id="T"><path d="M282.595 566.904h100.252V528.96H282.595Z" data-index="45"></path></clipPath><clipPath id="U"><path d="M231.358 484.26h71.696v-78.28h-71.696Z" data-index="46"></path></clipPath><clipPath id="V"><path d="M239.325 475.54h55.762V414.7h-55.762Z" data-index="47"></path></clipPath><clipPath id="W"><path d="M257.71 443.128h18.992V422.53H257.71Z" data-index="48"></path></clipPath><clipPath id="X"><path d="M1053.228 219.303h114.895V92.104h-114.895Z" data-index="49"></path></clipPath><clipPath id="Y"><path d="M1162.527 219.303h114.895V92.104h-114.895Z" data-index="50"></path></clipPath><clipPath id="Z"><path d="M1266.998 133.923h38.32v-38.32h-38.32Z" data-index="51"></path></clipPath><clipPath id="aa"><path d="M1246.58 371.564 1409.1 40.726l161.5 79.335L1408.08 450.9Z" data-index="52"></path></clipPath><clipPath id="ab"><path d="M0 1080h1920V0H0Z" data-index="53"></path></clipPath><clipPath id="ac"><path d="M1302.168 332.732 1653.5 221.229l54.43 171.505-351.331 111.502Z" data-index="54"></path></clipPath><clipPath id="ad"><path d="M0 1080h1920V0H0Z" data-index="55"></path></clipPath><clipPath id="ae"><path d="m1211.833 187.266 277.331 241.533-128.679 147.75-277.331-241.532Z" data-index="56"></path></clipPath><clipPath id="af"><path d="M0 1080h1920V0H0Z" data-index="57"></path></clipPath><clipPath id="ag"><path d="M1042.714 343.778h252.689v-195.93h-252.689Z" data-index="58"></path></clipPath><clipPath id="ah"><path d="m1431.731 357.898 158.587-68.682 33.932 78.351-158.586 68.682Z" data-index="59"></path></clipPath><clipPath id="ai"><path d="M0 1080h1920V0H0Z" data-index="60"></path></clipPath><clipPath id="aj"><path d="m1335.504 256.972 97.065-150.546 78.92 50.884-97.065 150.546Z" data-index="61"></path></clipPath><clipPath id="ak"><path d="M0 1080h1920V0H0Z" data-index="62"></path></clipPath><clipPath id="al"><path d="M1123.526 302.25h70.184v-30.567h-70.184Z" data-index="63"></path></clipPath><clipPath id="am"><path d="M1040.739 133.923h38.32v-38.32h-38.32Z" data-index="64"></path></clipPath><clipPath id="an"><path d="M1174.118 251.962h62.117v-67.795h-62.117Z" data-index="65"></path></clipPath><clipPath id="ao"><path d="M1180.99 244.441h48.373v-52.753h-48.373Z" data-index="66"></path></clipPath><clipPath id="ap"><path d="M1196.849 216.483h16.656v-18.04h-16.656Z" data-index="67"></path></clipPath><clipPath id="aq"><path d="M1083.872 251.962h62.117v-67.795h-62.117Z" data-index="68"></path></clipPath><clipPath id="ar"><path d="M1090.743 244.441h48.373v-52.753h-48.373Z" data-index="69"></path></clipPath><clipPath id="as"><path d="M1106.602 216.483h16.656v-18.04h-16.656Z" data-index="70"></path></clipPath></defs><g clip-path="url(#a)"></g><g clip-path="url(#b)"><text xml:space="preserve" fill="#071c44" font-family="Chalkboard" font-size="200" font-weight="bold" transform="translate(723.784 723.198)"><tspan x="0 148.22 284.24 440.66 600.68 733.3 897.12" y="0">PLAYFUL</tspan></text></g><g clip-path="url(#c)"><text xml:space="preserve" fill="#071c44" font-family="Chalkboard" font-size="187" font-weight="bold" transform="translate(221.639 898.97)"><tspan x="0 119.8857 244.4464 391.8211 527.6018 655.9025 769.8042 891.3729 1012.94168 1107.3954 1254.77 1389.0547" y="0">PROGRESSIONS</tspan></text></g><g clip-path="url(#d)"><g clip-path="url(#e)"><path fill="none" stroke="#000" stroke-width="16" d="m702.478 548.936.346-63.63" data-index="72"></path></g></g><g clip-path="url(#f)"><g clip-path="url(#g)"><path d="M690.366 559.988c-3.274-8.831-.757-22.702 5.622-30.982 6.38-8.28 14.204-7.834 17.478.997 3.274 8.83.756 22.701-5.623 30.982-6.378 8.28-14.203 7.833-17.477-.997Zm0 0" data-index="73"></path></g></g><g clip-path="url(#h)"><g clip-path="url(#i)"><path fill="none" stroke="#000" stroke-width="16" d="m1088.073 494.705-13.73-62.132" data-index="74"></path></g></g><g clip-path="url(#j)"><g clip-path="url(#k)"><path d="M1083.229 509.598c-6.946-6.36-11.044-19.849-9.152-30.128 1.892-10.28 9.056-13.458 16.003-7.098 6.946 6.36 11.043 19.85 9.152 30.129-1.892 10.28-9.057 13.457-16.003 7.097Zm0 0" data-index="75"></path></g></g><g clip-path="url(#l)"><path fill="#ff968d" d="M1129.132 297.756c38.568 39.15 38.568 102.624 0 141.773a97.725 97.725 0 0 1-139.667 0c-38.568-39.15-38.568-102.623 0-141.773a97.725 97.725 0 0 1 139.667 0Zm0 0" data-index="76"></path></g><g clip-path="url(#m)"><g clip-path="url(#n)"><path fill="none" stroke="#000" stroke-width="16" d="m780.008 528.596.346-63.63" data-index="77"></path></g></g><g clip-path="url(#o)"><g clip-path="url(#p)"><path d="M767.896 539.647c-3.274-8.83-.756-22.702 5.623-30.982 6.378-8.28 14.203-7.834 17.477.997 3.274 8.83.757 22.702-5.622 30.982-6.38 8.28-14.204 7.834-17.478-.997Zm0 0" data-index="78"></path></g></g><g clip-path="url(#q)"><g clip-path="url(#r)"><path fill="none" stroke="#000" stroke-width="16" d="m909.716 508.258.347-63.63" data-index="79"></path></g></g><g clip-path="url(#s)"><g clip-path="url(#t)"><path d="M897.605 519.31c-3.274-8.831-.757-22.703 5.622-30.983 6.379-8.28 14.204-7.834 17.477.997 3.274 8.83.757 22.702-5.622 30.982-6.379 8.28-14.204 7.834-17.477-.997Zm0 0" data-index="80"></path></g></g><g clip-path="url(#u)"><g clip-path="url(#v)"><path fill="none" stroke="#000" stroke-width="16" d="m413.388 698.035 29.005-56.635" data-index="81"></path></g></g><g clip-path="url(#w)"><g clip-path="url(#x)"><path d="M397.594 702.437c1.06-9.358 9.563-20.603 18.99-25.117 9.428-4.514 16.21-.587 15.15 8.772-1.06 9.358-9.563 20.603-18.99 25.117-9.428 4.514-16.21.586-15.15-8.772Zm0 0" data-index="82"></path></g></g><g clip-path="url(#y)"><g clip-path="url(#z)"><path fill="none" stroke="#000" stroke-width="16" d="m521.338 693.888.346-63.63" data-index="83"></path></g></g><g clip-path="url(#A)"><g clip-path="url(#B)"><path d="M509.226 704.94c-3.274-8.831-.756-22.702 5.622-30.983 6.38-8.28 14.204-7.833 17.478.997 3.274 8.831.756 22.702-5.622 30.983-6.38 8.28-14.204 7.833-17.478-.998Zm0 0" data-index="84"></path></g></g><g clip-path="url(#C)"><g clip-path="url(#D)"><path fill="none" stroke="#000" stroke-width="16" d="m609.586 628.874.346-63.63" data-index="85"></path></g></g><g clip-path="url(#E)"><g clip-path="url(#F)"><path d="M599.583 641.336c-4.425-8.314-3.786-22.397 1.428-31.456 5.215-9.059 13.03-9.663 17.454-1.35 4.426 8.314 3.786 22.398-1.428 31.456-5.215 9.06-13.03 9.663-17.454 1.35Zm0 0" data-index="86"></path></g></g><g clip-path="url(#G)"><path fill="#ef91a4" d="M977.242 298.84c39.992 40.594 39.992 106.411 0 147.006a101.333 101.333 0 0 1-144.822 0c-39.992-40.595-39.992-106.412 0-147.006a101.333 101.333 0 0 1 144.822 0Zm0 0" data-index="87"></path></g><g clip-path="url(#H)"><path fill="#71d4d5" d="M837.723 309.926c42.306 42.944 42.306 112.57 0 155.514a107.197 107.197 0 0 1-153.204 0c-42.307-42.944-42.307-112.57 0-155.514a107.197 107.197 0 0 1 153.204 0Zm0 0" data-index="88"></path></g><g clip-path="url(#I)"><path fill="#86c36f" d="M695.372 363.109c44.62 45.293 44.62 118.728 0 164.022a113.062 113.062 0 0 1-161.586 0c-44.62-45.294-44.62-118.729 0-164.022a113.062 113.062 0 0 1 161.586 0Zm0 0" data-index="89" style="opacity: 1;"></path></g><g clip-path="url(#J)"><g clip-path="url(#K)"><path fill="#fee56c" d="M628.942 566.002c-39.85 70.925-136.263 112.941-215.344 93.847-79.08-19.094-110.883-92.069-71.033-162.993 39.851-70.925 136.264-112.941 215.345-93.847 79.08 19.094 110.883 92.069 71.032 162.993Zm0 0" data-index="90" style="opacity: 1;"></path></g></g><g clip-path="url(#L)"><path d="M456.385 263.84c6.8 6.8 6.8 17.825 0 24.625-6.8 6.8-17.825 6.8-24.625 0-6.8-6.8-6.8-17.825 0-24.625 6.8-6.8 17.825-6.8 24.625 0Zm0 0" data-index="91"></path></g><g clip-path="url(#M)"><path fill="none" stroke="#000" stroke-width="9" d="M441.131 277.29c-33.313-100.392-69.667-79.607-109.063 62.355" data-index="92"></path></g><g clip-path="url(#N)"><path fill="none" stroke="#000" stroke-width="9" d="M198.973 277.29c33.313-100.392 69.667-79.607 109.063 62.355" data-index="93"></path></g><g clip-path="url(#O)"><path fill="#fc8098" d="M433.682 344.775c56.178 65.946 56.178 172.866 0 238.812-56.18 65.946-147.263 65.946-203.442 0s-56.179-172.866 0-238.812c56.18-65.946 147.263-65.946 203.442 0Zm0 0" data-index="94" style="opacity: 1;"></path></g><g clip-path="url(#P)"><path d="M216.814 263.84c6.8 6.8 6.8 17.825 0 24.625-6.8 6.8-17.825 6.8-24.625 0-6.8-6.8-6.8-17.825 0-24.625 6.8-6.8 17.825-6.8 24.625 0Zm0 0" data-index="95"></path></g><g clip-path="url(#Q)"><path fill="#fff" d="M422.877 418.151c13.609 14.894 13.609 39.043 0 53.937-13.609 14.895-35.673 14.895-49.282 0-13.609-14.894-13.609-39.043 0-53.937 13.609-14.894 35.673-14.894 49.282 0Zm0 0" data-index="96" style="opacity: 1;"></path></g><g clip-path="url(#R)"><path d="M417.243 424.317c10.498 11.489 10.498 30.117 0 41.606-10.497 11.49-27.517 11.49-38.015 0-10.497-11.49-10.497-30.117 0-41.606 10.498-11.49 27.518-11.49 38.015 0Zm0 0" data-index="97"></path></g><g clip-path="url(#S)"><path fill="#fff" d="M404.243 426.254c3.318 3.631 3.318 9.519 0 13.15-3.317 3.631-8.697 3.631-12.014 0-3.318-3.631-3.318-9.519 0-13.15 3.317-3.63 8.697-3.63 12.014 0Zm0 0" data-index="98"></path></g><g clip-path="url(#T)"><path fill="none" stroke="#000" stroke-width="9" d="M286.746 538.19c33.313 32.688 63.82 30.854 91.522-5.502" data-index="99" style="opacity: 1;"></path></g><g clip-path="url(#U)"><path fill="#fff" d="M291.847 418.151c13.609 14.894 13.609 39.043 0 53.937-13.609 14.895-35.673 14.895-49.282 0-13.609-14.894-13.609-39.043 0-53.937 13.609-14.894 35.673-14.894 49.282 0Zm0 0" data-index="100"></path></g><g clip-path="url(#V)"><path d="M286.214 424.317c10.497 11.489 10.497 30.117 0 41.606-10.498 11.49-27.518 11.49-38.016 0-10.497-11.49-10.497-30.117 0-41.606 10.498-11.49 27.518-11.49 38.016 0Zm0 0" data-index="101"></path></g><g clip-path="url(#W)"><path fill="#fff" d="M273.214 426.254c3.317 3.631 3.317 9.519 0 13.15-3.318 3.631-8.697 3.631-12.015 0-3.318-3.631-3.318-9.519 0-13.15 3.317-3.63 8.697-3.63 12.014 0Zm0 0" data-index="102"></path></g><g clip-path="url(#X)"><path fill="none" stroke="#000" stroke-width="9" d="M1056.856 111.738c51.215-36.866 86.494-1.61 105.838 105.766" data-index="103"></path></g><g clip-path="url(#Y)"><path fill="none" stroke="#000" stroke-width="9" d="M1273.794 111.738c-51.214-36.866-86.494-1.61-105.838 105.766" data-index="104"></path></g><g clip-path="url(#Z)"><path d="M1299 101.922c7.092 7.092 7.092 18.59 0 25.682-7.092 7.092-18.591 7.092-25.683 0-7.092-7.092-7.092-18.59 0-25.682 7.092-7.092 18.591-7.092 25.683 0Zm0 0" data-index="105"></path></g><g clip-path="url(#aa)"><g clip-path="url(#ab)"><path fill="#ffa2bb" d="M1409.354 101.977c62.616-48.886 113.034-24.118 112.612 55.32-.423 79.437-51.525 183.464-114.14 232.35-62.616 48.887-113.034 24.12-112.611-55.319.422-79.437 51.524-183.464 114.139-232.35Zm0 0" data-index="106" style="opacity: 1;"></path><path fill="none" stroke="#000" stroke-width=".5" d="M1409.355 101.977c62.615-48.886 113.033-24.118 112.61 55.32-.422 79.437-51.524 183.464-114.14 232.35-62.615 48.887-113.033 24.12-112.61-55.319.422-79.437 51.524-183.465 114.14-232.35Zm0 0" data-index="107"></path></g></g><g clip-path="url(#ac)"><g clip-path="url(#ad)"><path fill="#ffa2bb" d="M1609.444 263.785c78.617 11.398 95.61 64.939 37.954 119.586-57.656 54.648-168.127 89.708-246.744 78.31-78.617-11.399-95.609-64.94-37.953-119.587 57.655-54.648 168.126-89.708 246.743-78.31Zm0 0" data-index="108" style="opacity: 1; visibility: visible;"></path><path fill="none" stroke="#000" stroke-width=".5" d="M1609.445 263.785c78.617 11.398 95.609 64.939 37.953 119.586-57.656 54.648-168.127 89.708-246.744 78.31-78.617-11.399-95.61-64.94-37.953-119.587 57.656-54.648 168.127-89.708 246.744-78.31Zm0 0" data-index="109"></path></g></g><g clip-path="url(#ae)"><g clip-path="url(#af)"><path fill="#fc8098" d="M1428.707 415.134c28.988 75.461-11.333 121.759-90.061 103.409-78.727-18.35-166.048-94.4-195.036-169.86-28.988-75.462 11.334-121.76 90.061-103.41 78.727 18.35 166.048 94.4 195.036 169.86Zm0 0" data-index="110" style="opacity: 1;"></path></g></g><g clip-path="url(#ag)"><path fill="#ffa2bb" d="M1257.69 177.248c48.95 37.867 48.95 99.262 0 137.13-48.95 37.866-128.313 37.866-177.263 0-48.95-37.868-48.95-99.263 0-137.13 48.95-37.867 128.313-37.867 177.263 0Zm0 0" data-index="111" style="opacity: 1;"></path></g><g clip-path="url(#ah)"><g clip-path="url(#ai)"><path fill="#ebcd4b" d="M1571.695 311.679c37.078 1.685 47.569 25.908 23.432 54.104-24.137 28.197-73.762 49.688-110.84 48.003-37.078-1.685-47.569-25.908-23.432-54.104 24.137-28.197 73.762-49.688 110.84-48.003Zm0 0" data-index="112" style="opacity: 1;"></path></g></g><g clip-path="url(#aj)"><g clip-path="url(#ak)"><path fill="#65bad4" d="M1430.122 136.902c33.824-19.343 58.277-3.578 54.617 35.214-3.659 38.792-34.045 85.92-67.869 105.264-33.823 19.344-58.276 3.578-54.616-35.214 3.659-38.792 34.045-85.92 67.868-105.264Zm0 0" data-index="113"></path></g></g><g clip-path="url(#al)"><path fill="none" stroke="#000" stroke-width="9" d="M1127.861 278.269c23.248 25.664 43.594 24.6 61.038-3.194" data-index="114"></path></g><g clip-path="url(#am)"><path d="M1047.058 101.922c-7.092 7.092-7.092 18.59 0 25.682 7.092 7.092 18.59 7.092 25.682 0 7.092-7.092 7.092-18.59 0-25.682-7.092-7.092-18.59-7.092-25.682 0Zm0 0" data-index="115"></path></g><g clip-path="url(#an)"><path fill="#fff" d="M1226.431 194.802c11.739 12.848 11.739 33.677 0 46.525-11.738 12.847-30.77 12.847-42.509 0-11.738-12.848-11.738-33.677 0-46.525 11.739-12.847 30.771-12.847 42.509 0Zm0 0" data-index="116"></path></g><g clip-path="url(#ao)"><path d="M1221.572 200.12c9.055 9.91 9.055 25.978 0 35.889-9.055 9.91-23.736 9.91-32.79 0-9.055-9.91-9.055-25.978 0-35.889 9.054-9.91 23.735-9.91 32.79 0Zm0 0" data-index="117"></path></g><g clip-path="url(#ap)"><path fill="#fff" d="M1210.359 201.792c2.861 3.132 2.861 8.21 0 11.342-2.862 3.132-7.502 3.132-10.364 0-2.862-3.132-2.862-8.21 0-11.342 2.862-3.132 7.502-3.132 10.364 0Zm0 0" data-index="118"></path></g><g clip-path="url(#aq)"><path fill="#fff" d="M1136.184 194.802c11.739 12.848 11.739 33.677 0 46.525-11.738 12.847-30.77 12.847-42.509 0-11.738-12.848-11.738-33.677 0-46.525 11.739-12.847 30.771-12.847 42.509 0Zm0 0" data-index="119"></path></g><g clip-path="url(#ar)"><path d="M1131.325 200.12c9.055 9.91 9.055 25.978 0 35.889-9.055 9.91-23.736 9.91-32.79 0-9.055-9.91-9.055-25.978 0-35.889 9.054-9.91 23.735-9.91 32.79 0Zm0 0" data-index="120"></path></g><g clip-path="url(#as)"><path fill="#fff" d="M1120.112 201.792c2.862 3.132 2.862 8.21 0 11.342-2.862 3.132-7.502 3.132-10.364 0-2.862-3.132-2.862-8.21 0-11.342 2.862-3.132 7.502-3.132 10.364 0Zm0 0" data-index="121"></path></g></svg>