<?xml version="1.0" encoding="UTF-8" standalone="no"?>
<svg
   width="1567.964"
   height="866.16"
   style="max-height:500px"
   viewBox="172.778 64.8 1567.964 866.16"
   version="1.1"
   id="svg141"
   sodipodi:docname="logo.svg"
   inkscape:version="1.4.2 (ebf0e940, 2025-05-08)"
   xmlns:inkscape="http://www.inkscape.org/namespaces/inkscape"
   xmlns:sodipodi="http://sodipodi.sourceforge.net/DTD/sodipodi-0.dtd"
   xmlns="http://www.w3.org/2000/svg"
   xmlns:svg="http://www.w3.org/2000/svg">
  <sodipodi:namedview
     id="namedview141"
     pagecolor="#ffffff"
     bordercolor="#000000"
     borderopacity="0.25"
     inkscape:showpageshadow="2"
     inkscape:pageopacity="0.0"
     inkscape:pagecheckerboard="0"
     inkscape:deskcolor="#d1d1d1"
     inkscape:zoom="0.24721488"
     inkscape:cx="1177.1136"
     inkscape:cy="357.98816"
     inkscape:window-width="1440"
     inkscape:window-height="900"
     inkscape:window-x="0"
     inkscape:window-y="0"
     inkscape:window-maximized="0"
     inkscape:current-layer="svg141" />
  <defs
     id="defs71">
    <clipPath
       id="a">
      <path
         d="M0 1080h1920V0H0Z"
         data-index="0"
         id="path1" />
    </clipPath>
    <clipPath
       id="b">
      <path
         d="M645.97 845.573h1146.09V463.275H645.97Z"
         data-index="1"
         id="path2" />
    </clipPath>
    <clipPath
       id="c">
      <path
         d="M158.595 1013.39h1629.36V657.303H158.596Z"
         data-index="2"
         id="path3" />
    </clipPath>
    <clipPath
       id="d">
      <path
         d="m693.594 550.952-3.817-66.4 21.93-1.261 3.817 66.4Z"
         data-index="3"
         id="path4" />
    </clipPath>
    <clipPath
       id="e">
      <path
         d="M0 1080h1920V0H0Z"
         data-index="4"
         id="path5" />
    </clipPath>
    <clipPath
       id="f">
      <path
         d="m712.487 569.664-26.665-3.191 5.523-46.147 26.665 3.191Z"
         data-index="5"
         id="path6" />
    </clipPath>
    <clipPath
       id="g">
      <path
         d="M0 1080h1920V0H0Z"
         data-index="6"
         id="path7" />
    </clipPath>
    <clipPath
       id="h">
      <path
         d="m1079.856 498.634-18.403-63.913 21.109-6.078 18.402 63.913Z"
         data-index="7"
         id="path8" />
    </clipPath>
    <clipPath
       id="i">
      <path
         d="M0 1080h1920V0H0Z"
         data-index="8"
         id="path9" />
    </clipPath>
    <clipPath
       id="j">
      <path
         d="m1107.328 508.1-25.179 9.343-16.168-43.573 25.179-9.343Z"
         data-index="9"
         id="path10" />
    </clipPath>
    <clipPath
       id="k">
      <path
         d="M0 1080h1920V0H0Z"
         data-index="10"
         id="path11" />
    </clipPath>
    <clipPath
       id="l">
      <path
         d="M959.54 469.891h199.519V267.394h-199.52Z"
         data-index="11"
         id="path12" />
    </clipPath>
    <clipPath
       id="m">
      <path
         d="m771.125 530.611-3.818-66.4 21.93-1.26 3.818 66.4Z"
         data-index="12"
         id="path13" />
    </clipPath>
    <clipPath
       id="n">
      <path
         d="M0 1080h1920V0H0Z"
         data-index="13"
         id="path14" />
    </clipPath>
    <clipPath
       id="o">
      <path
         d="m790.017 549.324-26.665-3.191 5.523-46.148 26.665 3.192Z"
         data-index="14"
         id="path15" />
    </clipPath>
    <clipPath
       id="p">
      <path
         d="M0 1080h1920V0H0Z"
         data-index="15"
         id="path16" />
    </clipPath>
    <clipPath
       id="q">
      <path
         d="m900.833 510.274-3.817-66.4 21.93-1.262 3.817 66.4Z"
         data-index="16"
         id="path17" />
    </clipPath>
    <clipPath
       id="r">
      <path
         d="M0 1080h1920V0H0Z"
         data-index="17"
         id="path18" />
    </clipPath>
    <clipPath
       id="s">
      <path
         d="m919.726 528.986-26.666-3.191 5.523-46.147 26.666 3.19Z"
         data-index="18"
         id="path19" />
    </clipPath>
    <clipPath
       id="t">
      <path
         d="M0 1080h1920V0H0Z"
         data-index="19"
         id="path20" />
    </clipPath>
    <clipPath
       id="u">
      <path
         d="m404.55 695.828 26.538-60.986 20.142 8.764-26.538 60.987Z"
         data-index="20"
         id="path21" />
    </clipPath>
    <clipPath
       id="v">
      <path
         d="M0 1080h1920V0H0Z"
         data-index="21"
         id="path22" />
    </clipPath>
    <clipPath
       id="w">
      <path
         d="m412.974 721.05-22.36-14.874 25.74-38.697 22.36 14.874Z"
         data-index="22"
         id="path23" />
    </clipPath>
    <clipPath
       id="x">
      <path
         d="M0 1080h1920V0H0Z"
         data-index="23"
         id="path24" />
    </clipPath>
    <clipPath
       id="y">
      <path
         d="m512.455 695.904-3.818-66.4 21.93-1.261 3.818 66.4Z"
         data-index="24"
         id="path25" />
    </clipPath>
    <clipPath
       id="z">
      <path
         d="M0 1080h1920V0H0Z"
         data-index="25"
         id="path26" />
    </clipPath>
    <clipPath
       id="A">
      <path
         d="m531.347 714.616-26.665-3.191 5.523-46.147 26.665 3.191Z"
         data-index="26"
         id="path27" />
    </clipPath>
    <clipPath
       id="B">
      <path
         d="M0 1080h1920V0H0Z"
         data-index="27"
         id="path28" />
    </clipPath>
    <clipPath
       id="C">
      <path
         d="m600.703 630.89-3.818-66.4 21.93-1.261 3.818 66.4Z"
         data-index="28"
         id="path29" />
    </clipPath>
    <clipPath
       id="D">
      <path
         d="M0 1080h1920V0H0Z"
         data-index="29"
         id="path30" />
    </clipPath>
    <clipPath
       id="E">
      <path
         d="m622.8 647.967-26.854.403-.697-46.471 26.853-.403Z"
         data-index="30"
         id="path31" />
    </clipPath>
    <clipPath
       id="F">
      <path
         d="M0 1080h1920V0H0Z"
         data-index="31"
         id="path32" />
    </clipPath>
    <clipPath
       id="G">
      <path
         d="M801.426 477.291h206.81V267.394h-206.81Z"
         data-index="32"
         id="path33" />
    </clipPath>
    <clipPath
       id="H">
      <path
         d="M651.79 498.648h218.662v-221.93H651.79Z"
         data-index="33"
         id="path34" />
    </clipPath>
    <clipPath
       id="I">
      <path
         d="M499.32 562.1h230.517V328.14H499.32Z"
         data-index="34"
         id="path35" />
    </clipPath>
    <clipPath
       id="J">
      <path
         d="M588.315 348.5 689.57 580.84 383.193 714.36 281.939 482.018Z"
         data-index="35"
         id="path36" />
    </clipPath>
    <clipPath
       id="K">
      <path
         d="M0 1080h1920V0H0Z"
         data-index="36"
         id="path37" />
    </clipPath>
    <clipPath
       id="L">
      <path
         d="M425.66 294.565h36.825V257.74h-36.826Z"
         data-index="37"
         id="path38" />
    </clipPath>
    <clipPath
       id="M">
      <path
         d="M326.732 341.849h119.67V209.41h-119.67Z"
         data-index="38"
         id="path39" />
    </clipPath>
    <clipPath
       id="N">
      <path
         d="M193.702 341.849h119.67V209.41h-119.67Z"
         data-index="39"
         id="path40" />
    </clipPath>
    <clipPath
       id="O">
      <path
         d="M187.106 634.047h289.71V294.316h-289.71Z"
         data-index="40"
         id="path41" />
    </clipPath>
    <clipPath
       id="P">
      <path
         d="M186.089 294.565h36.825v-36.826h-36.825Z"
         data-index="41"
         id="path42" />
    </clipPath>
    <clipPath
       id="Q">
      <path
         d="M362.388 484.26h71.696v-78.28h-71.696Z"
         data-index="42"
         id="path43" />
    </clipPath>
    <clipPath
       id="R">
      <path
         d="M370.355 475.54h55.762V414.7h-55.762Z"
         data-index="43"
         id="path44" />
    </clipPath>
    <clipPath
       id="S">
      <path
         d="M388.74 443.128h18.992V422.53H388.74Z"
         data-index="44"
         id="path45" />
    </clipPath>
    <clipPath
       id="T">
      <path
         d="M282.595 566.904h100.252V528.96H282.595Z"
         data-index="45"
         id="path46" />
    </clipPath>
    <clipPath
       id="U">
      <path
         d="M231.358 484.26h71.696v-78.28h-71.696Z"
         data-index="46"
         id="path47" />
    </clipPath>
    <clipPath
       id="V">
      <path
         d="M239.325 475.54h55.762V414.7h-55.762Z"
         data-index="47"
         id="path48" />
    </clipPath>
    <clipPath
       id="W">
      <path
         d="M257.71 443.128h18.992V422.53H257.71Z"
         data-index="48"
         id="path49" />
    </clipPath>
    <clipPath
       id="X">
      <path
         d="M1053.228 219.303h114.895V92.104h-114.895Z"
         data-index="49"
         id="path50" />
    </clipPath>
    <clipPath
       id="Y">
      <path
         d="M1162.527 219.303h114.895V92.104h-114.895Z"
         data-index="50"
         id="path51" />
    </clipPath>
    <clipPath
       id="Z">
      <path
         d="M1266.998 133.923h38.32v-38.32h-38.32Z"
         data-index="51"
         id="path52" />
    </clipPath>
    <clipPath
       id="aa">
      <path
         d="M1246.58 371.564 1409.1 40.726l161.5 79.335L1408.08 450.9Z"
         data-index="52"
         id="path53" />
    </clipPath>
    <clipPath
       id="ab">
      <path
         d="M0 1080h1920V0H0Z"
         data-index="53"
         id="path54" />
    </clipPath>
    <clipPath
       id="ac">
      <path
         d="M1302.168 332.732 1653.5 221.229l54.43 171.505-351.331 111.502Z"
         data-index="54"
         id="path55" />
    </clipPath>
    <clipPath
       id="ad">
      <path
         d="M0 1080h1920V0H0Z"
         data-index="55"
         id="path56" />
    </clipPath>
    <clipPath
       id="ae">
      <path
         d="m1211.833 187.266 277.331 241.533-128.679 147.75-277.331-241.532Z"
         data-index="56"
         id="path57" />
    </clipPath>
    <clipPath
       id="af">
      <path
         d="M0 1080h1920V0H0Z"
         data-index="57"
         id="path58" />
    </clipPath>
    <clipPath
       id="ag">
      <path
         d="M1042.714 343.778h252.689v-195.93h-252.689Z"
         data-index="58"
         id="path59" />
    </clipPath>
    <clipPath
       id="ah">
      <path
         d="m1431.731 357.898 158.587-68.682 33.932 78.351-158.586 68.682Z"
         data-index="59"
         id="path60" />
    </clipPath>
    <clipPath
       id="ai">
      <path
         d="M0 1080h1920V0H0Z"
         data-index="60"
         id="path61" />
    </clipPath>
    <clipPath
       id="aj">
      <path
         d="m1335.504 256.972 97.065-150.546 78.92 50.884-97.065 150.546Z"
         data-index="61"
         id="path62" />
    </clipPath>
    <clipPath
       id="ak">
      <path
         d="M0 1080h1920V0H0Z"
         data-index="62"
         id="path63" />
    </clipPath>
    <clipPath
       id="al">
      <path
         d="M1123.526 302.25h70.184v-30.567h-70.184Z"
         data-index="63"
         id="path64" />
    </clipPath>
    <clipPath
       id="am">
      <path
         d="M1040.739 133.923h38.32v-38.32h-38.32Z"
         data-index="64"
         id="path65" />
    </clipPath>
    <clipPath
       id="an">
      <path
         d="M1174.118 251.962h62.117v-67.795h-62.117Z"
         data-index="65"
         id="path66" />
    </clipPath>
    <clipPath
       id="ao">
      <path
         d="M1180.99 244.441h48.373v-52.753h-48.373Z"
         data-index="66"
         id="path67" />
    </clipPath>
    <clipPath
       id="ap">
      <path
         d="M1196.849 216.483h16.656v-18.04h-16.656Z"
         data-index="67"
         id="path68" />
    </clipPath>
    <clipPath
       id="aq">
      <path
         d="M1083.872 251.962h62.117v-67.795h-62.117Z"
         data-index="68"
         id="path69" />
    </clipPath>
    <clipPath
       id="ar">
      <path
         d="M1090.743 244.441h48.373v-52.753h-48.373Z"
         data-index="69"
         id="path70" />
    </clipPath>
    <clipPath
       id="as">
      <path
         d="M1106.602 216.483h16.656v-18.04h-16.656Z"
         data-index="70"
         id="path71" />
    </clipPath>
  </defs>
  <g
     clip-path="url(#a)"
     id="g71" />
  <g
     clip-path="url(#b)"
     id="g72">
    <path
       d="m 11.270718,-124.41989 q 0.662984,-2.43094 2.209945,-4.64088 1.546961,-2.43094 3.535912,-4.1989 2.209944,-1.76795 4.640884,-2.43094 2.651933,-0.88398 5.303867,0 8.176796,-3.31491 16.574586,-5.52486 8.618784,-2.20994 17.016574,-2.43094 8.618785,-0.44199 16.79558,1.54696 8.39779,1.76796 16.132597,6.85083 6.187845,3.9779 10.828727,9.94475 4.86188,5.96685 7.9558,12.59669 5.30387,11.9337 4.86188,23.867401 -0.44199,11.712707 -5.52486,21.878453 -5.08287,10.165746 -14.364641,17.900553 -9.060773,7.734806 -21.436464,11.270718 -9.281768,2.651933 -19.005525,2.651933 -9.502762,-0.220994 -18.78453,-1.325966 v 21.436464 q 0,2.430939 0.220994,5.0828726 0.220995,2.6519337 0,5.3038674 0,2.6519337 -0.662983,5.08287295 Q 37.127072,3.0939227 35.58011,5.3038674 32.928177,9.7237569 28.729282,10.607735 24.530387,11.712707 20.552486,10.165746 16.79558,8.839779 13.922652,5.3038674 11.270718,1.9889503 11.270718,-2.8729282 V -42.651934 q -4.1988948,-2.209944 -6.1878451,-5.524862 -1.9889502,-3.314917 -1.7679558,-6.629834 0.2209945,-3.535911 2.2099448,-6.629834 1.9889503,-3.093923 5.5248621,-5.082873 v -56.574583 z m 64.309392,9.72376 q -9.281767,-3.75691 -19.005524,-2.20995 -9.502763,1.54696 -18.563536,5.74586 v 48.176795 q 10.38674,1.767955 21.215469,0.883977 10.82873,-0.883977 19.889503,-6.629834 6.40884,-4.198895 8.839779,-10.607735 2.430939,-6.408839 1.767956,-13.038674 -0.662984,-6.629834 -4.41989,-12.596689 -3.756906,-6.18784 -9.723757,-9.72375 z m 166.56254,93.259666 q 5.08288,2.430939 7.73481,6.187845 2.65193,3.756906 2.43094,7.7348068 0,3.7569061 -2.87293,7.29281772 -2.65193,3.31491718 -8.39779,5.08287298 -2.20994,0.6629834 -6.18784,0.6629834 -3.97791,0.2209945 -11.04973,0.2209945 -7.07182,0 -17.90055,0 -10.82873,0 -26.74033,0.2209944 -3.9779,0.2209945 -8.1768,0.2209945 -4.19889,0 -7.29282,-2.8729282 -2.65193,-2.2099447 -3.9779,-6.6298342 -1.10497,-4.640884 -1.54696,-9.5027629 -0.22099,-5.082872 -0.22099,-9.944751 0.22099,-5.082873 0.22099,-8.39779 0,-6.629834 0,-15.248619 0.221,-8.618784 0.221,-17.458563 0.22099,-9.060774 0.22099,-17.679558 0,-8.618785 0,-15.248619 0,-11.71271 0.221,-18.78453 0.22099,-7.29282 0.88397,-11.27072 0.88398,-4.19889 2.65194,-5.96685 1.76795,-1.98895 4.86188,-3.31492 2.65193,-1.10497 5.74585,-0.66298 3.31492,0.22099 5.96685,1.76796 2.87293,1.32596 4.64089,3.9779 1.98895,2.43094 1.98895,5.52486 0.44199,26.519335 0,52.596683 -0.44199,26.077348 -0.44199,52.154696 13.92265,0 27.62431,-0.220994 13.92265,-0.441989 28.0663,-0.883978 z M 411.7538,-6.4088398 q -0.66298,4.8618785 -3.31491,8.1767956 -2.65194,3.5359116 -6.18785,4.8618785 -3.31492,1.3259668 -7.29282,0.2209944 -3.7569,-0.8839779 -7.07182,-5.0828729 -2.87293,-3.5359116 -3.31492,-7.7348066 -0.22099,-4.4198892 -1.10497,-8.6187842 -2.20995,-12.154696 -6.40884,-24.972376 -13.70166,0.220994 -27.18232,0.220994 -13.48066,0 -26.96133,0.220995 -1.98895,5.745856 -3.53591,11.712707 -1.32597,5.966851 -2.65193,11.712707 -1.10497,4.41989 -1.98895,9.2817682 -0.88398,4.640884 -3.9779,8.1767956 -3.75691,4.4198895 -8.1768,4.8618785 -4.19889,0.6629834 -7.7348,-1.3259669 -3.31492,-1.9889503 -5.52487,-5.96685083 -1.98895,-4.19889507 -1.32596,-9.50276257 0.66298,-6.850829 2.65193,-13.480663 1.98895,-6.629834 3.75691,-13.259668 9.94475,-38.01105 25.63536,-73.591163 1.32596,-3.09392 2.65193,-5.96685 1.54696,-2.87293 2.87293,-5.74585 1.54696,-3.09393 3.09392,-6.62984 1.54696,-3.53591 3.53591,-6.40884 2.20995,-3.09392 5.08287,-5.08287 2.87293,-2.20995 7.07183,-2.20995 5.52486,0 9.28177,3.53592 15.02762,15.02762 24.75138,34.03314 9.72375,18.784535 17.45856,38.453043 4.64088,-0.220994 9.06077,0 4.41989,0.220994 7.9558,3.977901 3.09393,3.093922 3.53592,6.629834 0.66298,3.535911 -0.66299,6.850829 -1.10497,3.314917 -3.9779,5.745856 -2.65193,2.430939 -6.62983,3.314917 2.20994,7.734807 3.7569,15.911602 1.76796,7.955801 2.87293,16.1325969 z M 366.67093,-66.519337 q -4.1989,-9.944751 -9.06077,-19.668508 -4.64089,-9.944752 -10.60774,-18.784535 -4.41989,9.723761 -8.39779,19.447518 -3.7569,9.502763 -7.07182,19.447514 10.38674,-0.220995 18.12154,-0.220995 7.95581,0 17.01658,-0.220994 z m 144.26532,59.2265193 q -0.66299,5.5248619 -4.1989,9.0607735 -3.31492,3.5359116 -7.7348,4.4198895 -4.1989,0.8839779 -8.1768,-1.1049724 -3.9779,-1.9889502 -5.74586,-7.7348066 -1.10497,-3.7569061 -1.54696,-8.1767953 -0.22099,-4.41989 -0.22099,-8.618785 0.22099,-4.419889 0.44199,-8.39779 0.22099,-3.9779 0.22099,-6.629834 0,-6.40884 -0.22099,-12.596685 0,-6.187846 0,-12.596685 -10.82873,-10.386741 -19.88951,-21.878453 -8.83978,-11.712708 -15.9116,-24.972379 -2.20994,-3.9779 -4.19889,-8.61878 -1.98895,-4.86188 -2.20995,-9.50276 -1.10497,-4.1989 0.88398,-7.51382 1.98895,-3.53591 5.30387,-5.30386 3.53591,-1.98895 7.51381,-1.76796 4.19889,0 7.51381,2.65193 2.43094,1.98895 3.9779,4.64089 1.54696,2.65193 2.65194,5.74585 1.10497,2.87293 1.98895,5.96686 1.10497,3.09392 2.65193,5.74585 4.64088,8.39779 10.16575,15.69061 5.74585,7.071823 12.15469,14.143646 5.74586,-7.734807 12.37569,-14.364641 6.62984,-6.850825 12.1547,-14.585635 1.10497,-1.76796 3.31492,-5.30387 2.20994,-3.7569 4.64088,-7.7348 2.43094,-3.9779 5.08287,-7.29282 2.65194,-3.53591 4.64089,-4.64089 3.53591,-2.20994 7.07182,-1.98895 3.75691,0.221 6.62983,2.20995 3.09393,1.98895 4.86188,5.52486 1.76796,3.31492 1.32597,7.29282 -0.44199,4.19889 -3.9779,10.16574 -3.31492,5.96685 -7.9558,12.1547 -4.41989,6.187845 -9.06078,11.712707 -4.64088,5.524862 -7.29281,8.839779 -2.20995,2.651934 -4.41989,5.303868 -1.98895,2.430939 -4.1989,4.861878 -2.87293,3.314917 -5.52486,6.629834 -2.65193,3.314918 -5.30387,6.629835 0,12.596685 0,25.19337 0,12.596685 0.221,25.19337 z m 127.09181,2.2099448 q -0.66298,4.86187842 -3.53591,8.39779 -2.87293,3.5359116 -6.62984,4.8618785 -3.7569,1.3259668 -7.7348,0 -3.9779,-1.3259669 -6.62984,-5.9668508 -1.10497,-1.76795585 -1.76795,-3.7569061 -0.66299,-1.9889503 -0.66299,-3.9779006 V -57.679558 q -2.87293,-1.767956 -4.41989,-4.640884 -1.32596,-2.872928 -1.32596,-5.966851 0,-3.314917 1.54696,-6.187845 1.54696,-2.872928 4.19889,-4.861879 -0.22099,-4.198895 -0.22099,-7.071823 0.22099,-2.872928 0.22099,-5.524862 0,-2.651933 0,-5.303867 0,-2.872931 -0.44199,-6.629831 -0.22099,-3.09393 -1.54696,-5.96685 -1.10497,-3.09393 -1.98895,-5.96685 -0.88398,-3.09393 -0.66298,-6.18785 0.22099,-3.09392 2.65193,-5.96685 3.31492,-3.9779 7.9558,-4.64089 4.86188,-0.88397 9.72376,-1.32596 10.16575,-0.66299 20.1105,-0.66299 10.16574,0 20.33149,-0.44198 2.87293,0 6.18784,-0.44199 3.31492,-0.66299 6.62984,-0.88398 3.31492,-0.44199 6.62983,0 3.31492,0.22099 5.96685,1.76795 3.31492,1.98895 4.86188,5.08288 1.54696,3.09392 1.32597,6.40884 0,3.31491 -1.76796,6.40884 -1.76795,3.09392 -5.08287,4.86188 -5.74586,3.09392 -12.59668,3.31491 -6.85083,0 -13.03868,0.221 -7.29282,0.22099 -14.58563,0.22099 -7.29282,-0.22099 -14.58564,0.221 0.44199,4.19889 0.66298,9.944748 0.221,5.745856 0.221,16.79558 7.07182,0 14.36464,-0.220995 7.29282,-0.220994 14.36464,-1.325967 3.75691,-0.441989 7.9558,-1.546961 4.1989,-1.325967 7.9558,-0.883978 4.41989,0.441989 7.73481,3.314917 3.31492,2.872928 4.41989,6.629834 1.32597,3.535912 0,7.513813 -1.32597,3.756906 -5.96685,6.408839 -5.52486,3.093923 -11.9337,4.640884 -6.18785,1.325967 -12.81768,1.988951 -6.62984,0.441989 -13.25967,0.441989 -6.62984,-0.220995 -12.81768,-0.220995 V -5.0828729 Z M 833.63148,-126.62983 q 1.32597,-4.41989 4.19889,-7.29282 3.09393,-2.87293 6.62984,-3.75691 3.53591,-0.88398 7.07182,0.44199 3.75691,1.32597 6.40884,5.30387 0.88398,1.10497 1.54696,2.65193 0.88398,1.54696 0.88398,2.87293 0,2.43094 -0.22099,8.1768 -0.221,5.74585 -0.44199,11.7127 0,5.96685 -0.221,10.607738 -0.22099,4.640884 -0.22099,4.861878 -0.44199,11.933702 -1.54696,23.867404 -1.10498,11.712707 -3.09393,23.646408 -1.76795,9.281768 -4.19889,17.237569 -2.43094,7.734807 -6.62983,13.922652 -4.1989,5.9668512 -10.60774,10.3867407 -6.40884,4.4198895 -15.9116,7.0718232 -3.75691,1.1049724 -7.9558,1.5469614 -3.9779,0.4419889 -7.73481,0.4419889 -11.04972,0 -22.54144,-4.198895 -13.03867,-5.082873 -19.6685,-16.7955802 Q 752.7475,-25.635359 750.09557,-40 q -2.65194,-14.585635 -2.65194,-29.392265 0.221,-14.80663 0.221,-26.077348 0,-4.640887 0,-9.281767 0.22099,-4.86188 0.44199,-9.50276 0,-3.31492 0.22099,-6.85083 0.221,-3.75691 1.32597,-7.07183 1.10497,-3.31491 3.31492,-5.74585 2.43094,-2.43094 6.62983,-3.31492 2.43094,-0.44199 5.08287,0.44199 2.87293,0.88398 5.08288,2.65193 2.20994,1.54696 3.7569,3.9779 1.54696,2.20995 1.54696,4.86188 0,3.53591 0,5.74586 0,1.98895 0,3.75691 0,1.54696 -0.22099,3.31491 0,1.76796 0,4.64089 -0.44199,14.585631 -0.44199,29.171267 0,14.364641 1.76796,28.729282 0.66298,5.96685 1.98895,12.37569 1.32596,6.40884 5.30386,11.049724 3.53592,4.198895 9.06078,5.966851 5.74585,1.546961 11.49171,0.883978 5.96685,-0.662984 11.04972,-3.314917 5.30387,-2.651934 8.1768,-7.071824 2.87293,-4.419889 4.41989,-10.38674 1.54696,-5.966851 2.20994,-12.375691 0.88398,-6.408839 1.10498,-12.596685 0.44198,-6.408839 0.66298,-11.712707 0.44199,-6.187845 0.66298,-10.607735 0.221,-4.419889 0.44199,-10.607734 0.221,-4.640889 0.221,-9.281769 0,-4.64088 0.22099,-9.28177 z m 157.41117,105.193366 q 5.08287,2.430939 7.7348,6.187845 2.65195,3.756906 2.43095,7.7348068 0,3.7569061 -2.87294,7.29281772 -2.65193,3.31491718 -8.39779,5.08287298 -2.20994,0.6629834 -6.18784,0.6629834 -3.9779,0.2209945 -11.04972,0.2209945 -7.07183,0 -17.90056,0 -10.82873,0 -26.74033,0.2209944 -3.9779,0.2209945 -8.17679,0.2209945 -4.1989,0 -7.29282,-2.8729282 -2.65194,-2.2099447 -3.9779,-6.6298342 -1.10497,-4.640884 -1.54696,-9.5027629 -0.221,-5.082872 -0.221,-9.944751 0.221,-5.082873 0.221,-8.39779 0,-6.629834 0,-15.248619 0.22099,-8.618784 0.22099,-17.458563 0.221,-9.060774 0.221,-17.679558 0,-8.618785 0,-15.248619 0,-11.71271 0.22099,-18.78453 0.22099,-7.29282 0.88398,-11.27072 0.88398,-4.19889 2.65193,-5.96685 1.76796,-1.98895 4.86188,-3.31492 2.65193,-1.10497 5.74586,-0.66298 3.31491,0.22099 5.96685,1.76796 2.87293,1.32596 4.64088,3.9779 1.98895,2.43094 1.98895,5.52486 0.44199,26.519335 0,52.596683 -0.44199,26.077348 -0.44199,52.154696 13.92265,0 27.62431,-0.220994 13.92265,-0.441989 28.0663,-0.883978 z"
       id="text71"
       style="font-weight:bold;font-size:200px;font-family:Chalkboard;fill:#071c44"
       transform="translate(723.784 723.198)"
       aria-label="PLAYFUL" />
  </g>
  <g
     clip-path="url(#c)"
     id="g73">
    <path
       d="m 10.538122,-116.3326 q 0.619889,-2.27292 2.066298,-4.33922 1.446409,-2.27293 3.306077,-3.92597 2.066299,-1.65304 4.339227,-2.27293 2.479558,-0.82652 4.959116,0 7.645304,-3.09945 15.497237,-5.16574 8.058564,-2.0663 15.910498,-2.27293 8.058563,-0.41326 15.703867,1.44641 7.851934,1.65304 15.083978,6.40552 5.785635,3.71934 10.124862,9.29834 4.545858,5.57901 7.438678,11.7779 4.95911,11.158016 4.54585,22.316027 -0.41326,10.951381 -5.16574,20.456353 -4.75249,9.504973 -13.430943,16.737017 -8.471823,7.232044 -20.043094,10.538121 -8.678453,2.479558 -17.770166,2.479558 -8.885082,-0.206629 -17.563536,-1.239779 v 20.043094 q 0,2.272928 0.20663,4.7524865 0.20663,2.479558 0,4.959116 0,2.479558 -0.619889,4.75248617 Q 34.713812,2.8928177 33.267403,4.959116 30.787845,9.0917127 26.861878,9.918232 22.935912,10.951381 19.216575,9.5049724 15.703867,8.2651934 13.01768,4.959116 10.538122,1.8596685 10.538122,-2.6861878 V -39.879558 q -3.9259673,-2.066298 -5.7856358,-5.165746 -1.8596685,-3.099447 -1.6530387,-6.198895 0.2066298,-3.306077 2.0662984,-6.198895 1.8596685,-2.892818 5.1657461,-4.752486 v -52.89724 z m 60.129281,9.09172 q -8.678453,-3.51271 -17.770165,-2.0663 -8.885083,1.44641 -17.356907,5.37237 v 45.045307 q 9.711603,1.653039 19.836465,0.82652 10.124861,-0.82652 18.596685,-6.198895 5.992265,-3.925967 8.265193,-9.918232 2.272928,-5.992266 1.653039,-12.191161 -0.61989,-6.198895 -4.132597,-11.7779 -3.512707,-5.785639 -9.091713,-9.091709 z M 156.25255,-5.1657459 Q 155.63266,0 151.91332,3.3060773 q -3.71934,3.3060774 -8.05856,4.1325967 -4.33923,1.0331492 -8.05857,-0.8265193 -3.5127,-1.8596685 -3.71933,-7.43867404 -1.03315,-23.76243066 -1.03315,-49.17790066 0,-25.622099 0,-50.83094 -3.30608,-1.23978 -4.95912,-3.71934 -1.65304,-2.47955 -2.0663,-5.37237 -0.20663,-3.09945 0.82652,-6.1989 1.03315,-3.09944 3.09945,-5.37237 2.27293,-2.47956 6.19889,-4.54586 3.92597,-2.0663 8.47183,-3.71934 4.75248,-1.85966 9.29834,-3.09944 4.54586,-1.23978 7.6453,-1.85967 13.01768,-2.68619 26.24199,0.20663 13.22431,2.68619 23.14254,9.91823 10.12487,7.23204 15.08398,18.80331 4.95912,11.571276 1.03315,26.448624 -1.23978,4.132596 -3.09945,8.265193 -1.85966,4.132597 -4.33922,7.645304 -3.51271,5.372376 -8.2652,9.504972 -4.75248,4.132597 -10.33149,7.645304 3.92597,4.132597 7.43868,8.678453 3.5127,4.545857 7.85193,8.265194 1.65304,1.446408 4.75249,4.545856 3.30607,3.099447 6.19889,6.612155 3.09945,3.512707 5.37238,7.025414 2.27293,3.3060773 2.0663,5.5790055 -0.20663,3.9259668 -2.27293,7.0254143 -1.85967,3.3060774 -4.75249,4.9591161 -2.68619,1.8596685 -5.99226,1.8596685 -3.30608,0 -6.61216,-2.2729282 -3.71934,-2.8928177 -7.02541,-6.81878454 -3.30608,-3.92596686 -6.40553,-7.23204416 -6.81878,-7.4386745 -13.43094,-14.8773485 -6.40552,-7.645303 -13.22431,-14.877348 -4.13259,0.82652 -8.47182,1.239779 -4.1326,0.20663 -8.26519,0.61989 V -6.6121547 Z M 193.23929,-105.17459 q -8.2652,-4.95911 -18.18343,-5.579 -9.7116,-0.61989 -18.80331,2.68619 v 46.698339 q 9.29834,-0.619889 18.18342,-2.272928 9.09172,-1.859668 16.73702,-7.851934 4.1326,-3.306077 6.61215,-7.645304 2.68619,-4.545856 3.09945,-9.091712 0.61989,-4.752486 -1.23978,-9.091713 -1.65304,-4.545858 -6.40552,-7.851938 z m 180.55738,52.483982 q -3.51271,11.571271 -9.09171,22.729282 -5.37238,10.951381 -13.22431,19.629834 -7.85193,8.6784533 -18.39006,14.050829 -10.33149,5.3723757 -23.76243,5.3723757 -8.67845,-0.4132597 -13.8442,-1.6530387 -4.95911,-1.0331491 -9.7116,-3.3060773 -8.47182,-2.479558 -14.67072,-7.8519337 -5.99226,-5.5790055 -10.12486,-12.81105 -4.13259,-7.232044 -6.40552,-15.290607 -2.0663,-8.265194 -2.68619,-15.910498 -1.03315,-13.430939 2.27293,-27.275138 3.30608,-13.844199 10.53812,-25.41547 7.23204,-11.7779 18.18343,-20.04309 10.95138,-8.47183 25.0022,-11.15801 7.23205,-1.23978 14.67072,-0.82652 7.43868,0.41326 14.46409,2.89281 5.78564,2.0663 10.74475,4.75249 4.95912,2.68619 9.50498,6.81878 5.99226,5.37238 10.12486,12.39779 4.13259,7.025419 5.99226,14.670723 2.27293,9.711602 2.0663,19.216575 -0.20663,9.504972 -1.65304,19.009944 z m -53.51712,34.920442 q 6.19889,-2.686188 10.74475,-7.025414 4.75248,-4.545856 8.26519,-9.918232 3.51271,-5.372376 5.78564,-11.364641 2.47955,-6.198895 4.33922,-12.39779 1.23978,-7.851934 1.23978,-16.117127 0.20663,-8.265194 -3.30608,-15.703868 -2.89281,-6.198895 -8.88508,-10.538122 -5.78563,-4.54586 -12.81105,-6.19889 -7.02541,-1.85967 -14.25746,-0.82652 -7.02541,1.03315 -12.60442,5.579 -7.85193,6.612157 -12.81105,14.87735 -4.75248,8.058564 -7.23204,17.976796 -2.0663,7.851933 -2.27293,16.530386 -0.20663,8.678453 2.68619,16.530387 2.27293,5.785636 6.61215,10.538122 4.54586,4.752486 10.12486,7.438674 5.57901,2.686188 11.77791,3.099447 6.40552,0.20663 12.60442,-2.479558 z m 183.53493,-55.790055 q 4.13259,1.239779 7.02541,4.132597 2.89282,2.686188 3.71934,6.198895 1.03315,3.306077 -0.41326,6.818784 -1.23978,3.306078 -5.57901,5.992265 -0.41326,0.61989 -0.20663,5.165746 0.20663,4.339227 0.20663,10.124862 0.20663,5.785636 -0.20663,11.777901 -0.41326,5.785635 -1.85967,9.091712 -1.4464,2.686188 -3.5127,4.7524866 -2.0663,2.0662984 -4.33923,3.9259669 -7.6453,6.40552484 -16.32376,9.7116022 -8.67845,3.5127072 -17.77016,4.1325967 -9.09172,0.6198895 -18.39006,-1.8596685 -9.09171,-2.479558 -17.56353,-7.8519337 -10.74475,-6.8187846 -18.18343,-17.5635362 -7.23204,-10.744751 -10.53812,-23.142541 -2.0663,-7.851934 -2.47956,-16.323757 -0.20663,-8.678453 1.44641,-16.943647 1.65304,-8.471823 5.37238,-16.117127 3.71933,-7.645303 9.29834,-13.844203 6.61215,-7.23204 15.08398,-11.98453 8.67845,-4.75248 17.77016,-8.26519 7.02542,-2.89282 14.46409,-4.33923 7.43867,-1.4464 15.08398,-1.03314 5.78563,0.41325 12.39779,2.06629 6.81878,1.44641 11.57127,5.37238 2.27293,1.85967 3.71934,4.54586 1.65303,2.68618 1.85966,5.579 0.41326,2.68619 -0.61988,5.37238 -1.03315,2.47955 -3.71934,4.54585 -2.68619,2.0663 -5.78564,2.47956 -2.89281,0.20663 -5.99226,-0.41326 -3.09945,-0.82652 -6.1989,-2.0663 -3.09944,-1.23978 -5.78563,-2.0663 -2.27293,-0.82651 -4.95912,-0.61988 -2.47956,0 -4.95911,0.41325 -7.23205,2.0663 -14.67072,5.16575 -7.23205,2.892818 -13.43094,7.232045 -6.1989,4.339226 -10.74475,10.331492 -4.33923,5.992265 -5.57901,14.464088 -1.65304,10.538122 1.03315,21.076243 2.68619,10.331492 9.91823,18.183426 4.75249,5.165745 10.95138,8.471823 6.40553,3.099447 13.22431,3.719337 6.81879,0.619889 13.43094,-1.446409 6.61216,-2.066298 11.7779,-7.232044 v -22.316022 q -4.13259,0.206629 -8.67845,0.826519 -4.33923,0.41326 -8.88508,0.619889 -4.33923,0 -8.67846,-0.619889 -4.13259,-0.826519 -7.85193,-2.892818 -3.51271,-2.066298 -4.95912,-5.372375 -1.23978,-3.512708 -0.61989,-6.818785 0.61989,-3.512707 2.89282,-6.405525 2.27293,-2.892817 6.1989,-3.925967 1.85967,-0.413259 4.54585,-0.413259 2.89282,-0.20663 5.57901,-0.20663 2.89282,0 5.16574,0.20663 2.27293,0 3.51271,0 8.05857,0 15.9105,-0.20663 8.05856,-0.20663 16.32376,-0.20663 z m 60.15418,68.3944751 Q 563.34877,0 559.62943,3.3060773 555.91009,6.6121547 551.57087,7.438674 547.23164,8.4718232 543.5123,6.6121547 539.9996,4.7524862 539.79297,-0.82651934 538.75982,-24.58895 538.75982,-50.00442 q 0,-25.622099 0,-50.83094 -3.30608,-1.23978 -4.95912,-3.71934 -1.65304,-2.47955 -2.0663,-5.37237 -0.20663,-3.09945 0.82652,-6.1989 1.03315,-3.09944 3.09945,-5.37237 2.27293,-2.47956 6.1989,-4.54586 3.92596,-2.0663 8.47182,-3.71934 4.75248,-1.85966 9.29834,-3.09944 4.54586,-1.23978 7.6453,-1.85967 13.01768,-2.68619 26.24199,0.20663 13.22431,2.68619 23.14255,9.91823 10.12486,7.23204 15.08397,18.80331 4.95912,11.571276 1.03315,26.448624 -1.23978,4.132596 -3.09945,8.265193 -1.85966,4.132597 -4.33922,7.645304 -3.51271,5.372376 -8.2652,9.504972 -4.75248,4.132597 -10.33149,7.645304 3.92597,4.132597 7.43868,8.678453 3.5127,4.545857 7.85193,8.265194 1.65304,1.446408 4.75249,4.545856 3.30607,3.099447 6.19889,6.612155 3.09945,3.512707 5.37238,7.025414 2.27293,3.3060773 2.0663,5.5790055 -0.20663,3.9259668 -2.27293,7.0254143 -1.85967,3.3060774 -4.75249,4.9591161 -2.68619,1.8596685 -5.99226,1.8596685 -3.30608,0 -6.61216,-2.2729282 -3.71934,-2.8928177 -7.02541,-6.81878454 -3.30608,-3.92596686 -6.40553,-7.23204416 -6.81878,-7.4386745 -13.43094,-14.8773485 -6.40552,-7.645303 -13.22431,-14.877348 -4.13259,0.82652 -8.47182,1.239779 -4.1326,0.20663 -8.26519,0.61989 V -6.6121547 Z M 600.9554,-105.17459 q -8.2652,-4.95911 -18.18343,-5.579 -9.7116,-0.61989 -18.80331,2.68619 v 46.698339 q 9.29834,-0.619889 18.18342,-2.272928 9.09172,-1.859668 16.73702,-7.851934 4.1326,-3.306077 6.61215,-7.645304 2.68619,-4.545856 3.09945,-9.091712 0.61989,-4.752486 -1.23978,-9.091713 -1.65304,-4.545858 -6.40552,-7.851938 z m 139.87199,79.552491 q 3.71934,0.206629 6.40552,2.066298 2.89282,1.653039 4.54586,4.132597 1.85967,2.479558 2.0663,5.785635 0.41326,3.099447 -1.23978,6.4055248 -0.61989,1.4464088 -2.68619,3.5127072 -1.85967,1.8596685 -3.51271,2.2729282 -13.22431,3.9259668 -27.27513,4.7524861 -13.8442,1.0331492 -27.48177,-0.4132596 -3.92597,-0.4132597 -8.67845,-0.8265194 -4.54586,-0.4132596 -8.05857,-2.6861878 -6.40552,-4.1325967 -6.40552,-11.7779005 v -88.02431 q -2.27293,-1.65304 -3.71934,-4.1326 -1.44641,-2.47955 -1.85967,-5.16574 -0.20663,-2.89282 0.82652,-5.37238 1.03315,-2.68619 3.51271,-4.54585 4.13259,-3.30608 9.50497,-4.33923 5.37238,-1.23978 10.53812,-2.0663 10.74475,-1.65304 21.4895,-1.65304 10.74476,0 21.90277,-0.20663 3.30607,0 7.6453,-0.41326 4.33923,-0.61989 7.6453,0.61989 3.92597,1.44641 6.1989,4.54586 2.27293,3.09945 2.68619,6.61215 0.41326,3.51271 -1.44641,6.81879 -1.65304,3.30608 -5.99227,5.16574 -5.16574,2.0663 -11.15801,1.85967 -5.78563,-0.20663 -11.15801,-0.20663 -7.85193,0 -15.70387,0.20663 -7.85193,0.20663 -15.70386,1.23978 v 28.721548 q 7.43867,0.41326 14.87734,0 7.43868,-0.413259 14.87735,-1.033149 3.30608,-0.20663 6.61216,-0.619889 3.30607,-0.41326 6.81878,0 4.54586,0.619889 7.02542,3.719337 2.47955,3.099447 2.89281,7.025414 0.61989,3.719337 -1.23978,7.438674 -1.85966,3.719337 -5.99226,5.372376 -3.51271,1.446409 -9.50497,2.272928 -5.99227,0.619889 -12.60442,1.033149 -6.61216,0.20663 -13.01768,0.20663 -6.40553,0 -10.74475,-0.20663 v 25.41547 q 11.36464,1.446409 22.93591,0.413259 11.57127,-1.033149 22.72928,-3.925966 z m 41.16797,11.158011 q -1.44641,-3.925967 -1.03315,-7.851934 0.61989,-3.925967 2.68619,-6.612155 2.27293,-2.892817 5.78563,-3.925967 3.51271,-1.239779 7.85194,0.61989 3.92596,1.653039 6.61215,4.959116 2.89282,3.099447 6.81879,4.959116 5.37237,2.686188 10.95138,3.925967 3.92596,1.033149 7.85193,1.446409 3.92597,0.206629 8.05856,0.206629 3.09945,-0.826519 5.37238,-1.653038 2.27293,-0.82652 4.95912,-3.512707 3.09944,-2.686188 3.92596,-6.405525 1.03315,-3.719337 0,-7.232044 -0.82652,-3.719338 -3.5127,-6.612155 -2.47956,-3.099448 -6.1989,-4.132597 -7.23204,-2.479558 -14.46409,-3.719337 -7.23204,-1.446409 -14.05083,-3.306077 -6.81878,-1.859669 -13.01768,-5.165746 -5.99226,-3.512707 -11.15801,-9.918232 -2.89281,-3.512707 -3.71933,-6.198895 -0.82652,-2.686188 -1.85967,-6.818785 -1.85967,-9.918232 1.44641,-16.737016 3.5127,-6.818789 8.67845,-12.397789 6.61215,-7.23205 14.87735,-10.95138 8.47182,-3.92597 17.56353,-4.95912 9.29835,-1.23978 18.59669,0.41326 9.50497,1.44641 17.97679,5.16575 4.95912,2.0663 6.1989,6.40552 1.44641,4.33923 0.20663,8.47183 -1.23978,4.13259 -4.75249,6.81878 -3.5127,2.686187 -8.26519,1.859668 -4.95912,-1.033149 -9.29834,-2.066298 -4.33923,-1.23978 -8.67846,-2.0663 -3.30607,-0.61989 -7.23204,-0.20663 -3.71934,0.41326 -7.23204,1.44641 -3.30608,0.82652 -6.1989,2.066299 -2.89282,1.033149 -4.33923,2.272928 -1.65303,1.446409 -3.30607,3.719337 -1.44641,2.272928 -1.65304,5.165746 -0.41326,3.512707 2.68619,5.785635 3.09944,2.272928 6.61215,3.306077 6.81879,1.446409 14.05083,2.892818 7.23204,1.239779 14.25746,3.719337 7.02541,2.272928 13.01768,5.992265 6.19889,3.719337 10.53812,9.918232 4.75249,5.372376 6.81878,12.191161 2.0663,6.818784 1.44641,13.637569 -0.41326,6.818784 -3.09944,13.224309 -2.68619,6.198895 -7.43868,10.9513813 -3.30608,3.3060774 -7.02541,5.57900553 -3.51271,2.47955797 -7.64531,4.75248617 -8.26519,4.3392265 -17.77016,4.3392265 -9.50498,0 -19.00995,-2.8928176 -9.50497,-2.6861879 -17.97679,-7.6453039 -8.47183,-5.1657459 -14.46409,-11.158011 z m 121.56873,0 q -1.44641,-3.925967 -1.03315,-7.851934 0.61989,-3.925967 2.68618,-6.612155 2.27293,-2.892817 5.78564,-3.925967 3.51271,-1.239779 7.85193,0.61989 3.92597,1.653039 6.61216,4.959116 2.89282,3.099447 6.81878,4.959116 5.37238,2.686188 10.95138,3.925967 3.92597,1.033149 7.85194,1.446409 3.92596,0.206629 8.05856,0.206629 3.09945,-0.826519 5.37238,-1.653038 2.27292,-0.82652 4.95911,-3.512707 3.09945,-2.686188 3.92597,-6.405525 1.03315,-3.719337 0,-7.232044 -0.82652,-3.719338 -3.51271,-6.612155 -2.47956,-3.099448 -6.19889,-4.132597 -7.23205,-2.479558 -14.46409,-3.719337 -7.23205,-1.446409 -14.05083,-3.306077 -6.81878,-1.859669 -13.01768,-5.165746 -5.99227,-3.512707 -11.15801,-9.918232 -2.89282,-3.512707 -3.71934,-6.198895 -0.82652,-2.686188 -1.85967,-6.818785 -1.85966,-9.918232 1.44641,-16.737016 3.51271,-6.818789 8.67846,-12.397789 6.61215,-7.23205 14.87734,-10.95138 8.47183,-3.92597 17.56354,-4.95912 9.29834,-1.23978 18.59668,0.41326 9.50498,1.44641 17.9768,5.16575 4.95912,2.0663 6.1989,6.40552 1.4464,4.33923 0.20662,8.47183 -1.23977,4.13259 -4.75248,6.81878 -3.51271,2.686187 -8.26519,1.859668 -4.95912,-1.033149 -9.29835,-2.066298 -4.33922,-1.23978 -8.67845,-2.0663 -3.30608,-0.61989 -7.23204,-0.20663 -3.71934,0.41326 -7.23205,1.44641 -3.30608,0.82652 -6.19889,2.066299 -2.89282,1.033149 -4.33923,2.272928 -1.65304,1.446409 -3.30608,3.719337 -1.44641,2.272928 -1.65304,5.165746 -0.41326,3.512707 2.68619,5.785635 3.09945,2.272928 6.61216,3.306077 6.81878,1.446409 14.05083,2.892818 7.23204,1.239779 14.25745,3.719337 7.02542,2.272928 13.01768,5.992265 6.1989,3.719337 10.53812,9.918232 4.75249,5.372376 6.81879,12.191161 2.06628,6.818784 1.44641,13.637569 -0.41326,6.818784 -3.09945,13.224309 -2.68619,6.198895 -7.43867,10.9513813 -3.30608,3.3060774 -7.02542,5.57900553 -3.5127,2.47955797 -7.6453,4.75248617 -8.2652,4.3392265 -17.77017,4.3392265 -9.50497,0 -19.00994,-2.8928176 -9.50497,-2.6861879 -17.9768,-7.6453039 -8.47182,-5.1657459 -14.46409,-11.158011 z m 173.22621,-7.232045 q 5.3723,0.20663 8.8851,3.306078 3.5127,2.892817 4.5458,6.818784 1.0332,3.9259671 -0.6199,7.851934 -1.653,3.719337 -6.8188,5.7856353 -3.7193,1.4464089 -8.885,1.8596686 -4.9592,0.4132596 -10.1249,0.2066298 -4.9591,0 -9.2984,-0.4132597 -4.3392,-0.2066298 -6.6121,-0.2066298 h -12.1912 q -4.3392,0 -7.4386,-2.479558 -3.0995,-2.2729282 -4.5459,-5.5790056 -1.2398,-3.3060773 -0.6199,-7.0254146 0.8265,-3.719337 3.926,-6.818784 2.8928,-2.892818 7.6453,-3.306078 4.7525,-0.413259 9.505,0 v -81.825417 q -4.7525,0 -8.8851,0 -4.1326,-0.20663 -8.2652,-3.09944 -3.0995,-2.27293 -4.1326,-5.16575 -1.0332,-3.09945 -0.4133,-5.99227 0.8265,-3.09944 2.8928,-5.78563 2.0663,-2.68619 5.1658,-3.92597 2.8928,-1.23978 5.9923,-1.23978 10.5381,0 21.0762,0 10.7447,-0.20663 21.4895,0 1.0331,0 1.8597,0.61989 1.0331,0.61989 2.0663,1.03315 4.7525,2.68619 6.4055,7.64531 1.653,4.95911 -1.2398,9.7116 -1.4464,2.47956 -3.7193,3.92596 -2.0663,1.23978 -4.7525,1.85967 -2.4796,0.41326 -5.1658,0.41326 -2.6861,0 -5.1657,0 v 82.238677 q 1.653,0 2.8928,0 1.4464,-0.20663 3.0995,-0.41326 z m 159.9554,-30.994475 q -3.5127,11.571271 -9.0918,22.729282 -5.3723,10.951381 -13.2243,19.629834 -7.8519,8.6784533 -18.39,14.050829 -10.3315,5.3723757 -23.7624,5.3723757 -8.6785,-0.4132597 -13.8442,-1.6530387 -4.9592,-1.0331491 -9.7116,-3.3060773 -8.4719,-2.479558 -14.6708,-7.8519337 -5.9922,-5.5790055 -10.1248,-12.81105 -4.1326,-7.232044 -6.4056,-15.290607 -2.0663,-8.265194 -2.6861,-15.910498 -1.0332,-13.430939 2.2729,-27.275138 3.3061,-13.844199 10.5381,-25.41547 7.2321,-11.7779 18.1834,-20.04309 10.9514,-8.47183 25.0022,-11.15801 7.2321,-1.23978 14.6708,-0.82652 7.4386,0.41326 14.4641,2.89281 5.7856,2.0663 10.7447,4.75249 4.9591,2.68619 9.505,6.81878 5.9922,5.37238 10.1248,12.39779 4.1326,7.025419 5.9923,14.670723 2.2729,9.711602 2.0663,19.216575 -0.2066,9.504972 -1.653,19.009944 z m -53.5172,34.920442 q 6.1989,-2.686188 10.7448,-7.025414 4.7525,-4.545856 8.2652,-9.918232 3.5127,-5.372376 5.7856,-11.364641 2.4796,-6.198895 4.3392,-12.39779 1.2398,-7.851934 1.2398,-16.117127 0.2067,-8.265194 -3.3061,-15.703868 -2.8928,-6.198895 -8.885,-10.538122 -5.7857,-4.54586 -12.8111,-6.19889 -7.0254,-1.85967 -14.2574,-0.82652 -7.0255,1.03315 -12.6045,5.579 -7.8519,6.612157 -12.811,14.87735 -4.7525,8.058564 -7.2321,17.976796 -2.0663,7.851933 -2.2729,16.530386 -0.2066,8.678453 2.6862,16.530387 2.2729,5.785636 6.6122,10.538122 4.5458,4.752486 10.1248,7.438674 5.579,2.686188 11.7779,3.099447 6.4055,0.20663 12.6044,-2.479558 z m 164.5249,-104.761324 q 1.2398,-4.1326 3.926,-6.81879 2.8928,-2.68618 6.1989,-3.5127 3.3061,-0.82652 6.6122,0.41326 3.5127,1.23978 5.9922,4.95911 0.8265,1.03315 1.4464,2.47956 0.8266,1.44641 0.8266,2.68619 0.4132,29.548064 -0.4133,59.096131 -0.6199,29.341436 -2.2729,58.8895025 0,4.75248617 -3.0995,7.438674 -2.8928,2.6861879 -6.8188,3.3060774 -3.7193,0.8265193 -7.6453,-0.8265194 Q 1348.58,4.1325967 1346.7203,0.41325967 1346.5137,0.20662983 1346.5137,0 V 0.41325967 Q 1333.0827,-21.696133 1318.2054,-41.945856 1303.328,-62.40221 1287.2109,-82.445304 v 46.698343 q 0,9.504972 0,15.910497 0,6.405525 -0.2066,10.5381215 -0.2067,3.9259668 -0.6199,6.198895 -0.2066,2.27292816 -0.8265,3.92596684 -1.8597,4.95911606 -5.7857,6.61215466 -3.7193,1.6530387 -7.6453,0.8265194 -3.9259,-0.8265194 -6.8188,-4.1325967 -2.8928,-3.30607736 -2.8928,-8.2651934 0,-2.8928177 0,-9.0917123 0,-6.198895 0,-14.050829 0,-7.851934 0,-16.737017 0,-9.091712 0,-17.770165 0,-8.678453 -0.2066,-16.117128 0,-7.645303 0,-12.811049 0,-7.025415 -0.2066,-13.844203 -0.2067,-7.02541 0,-14.05082 0,-3.51271 1.653,-5.99227 1.8597,-2.47956 4.5459,-3.71934 2.6861,-1.44641 5.7856,-1.65304 3.0994,-0.20663 5.9923,0.82652 2.4795,0.82652 4.9591,3.51271 2.6862,2.47956 5.1657,5.57901 2.4796,2.89281 4.5459,5.99226 2.2729,2.89282 3.7193,4.75249 5.3724,6.61215 12.3978,15.290605 7.0254,8.471824 13.0177,16.117127 5.9922,7.851934 11.5713,15.703868 5.7856,7.851934 11.158,15.703867 0.6199,-18.803315 0.8265,-37.4 0.2066,-18.596687 0.2066,-37.399997 z m 53.4924,108.067402 q -1.4464,-3.925967 -1.0331,-7.851934 0.6199,-3.925967 2.6862,-6.612155 2.2729,-2.892817 5.7856,-3.925967 3.5127,-1.239779 7.852,0.61989 3.9259,1.653039 6.6121,4.959116 2.8928,3.099447 6.8188,4.959116 5.3724,2.686188 10.9514,3.925967 3.9259,1.033149 7.8519,1.446409 3.926,0.206629 8.0586,0.206629 3.0994,-0.826519 5.3723,-1.653038 2.273,-0.82652 4.9592,-3.512707 3.0994,-2.686188 3.9259,-6.405525 1.0332,-3.719337 0,-7.232044 -0.8265,-3.719338 -3.5127,-6.612155 -2.4795,-3.099448 -6.1989,-4.132597 -7.232,-2.479558 -14.4641,-3.719337 -7.232,-1.446409 -14.0508,-3.306077 -6.8188,-1.859669 -13.0177,-5.165746 -5.9922,-3.512707 -11.158,-9.918232 -2.8928,-3.512707 -3.7193,-6.198895 -0.8265,-2.686188 -1.8597,-6.818785 -1.8597,-9.918232 1.4464,-16.737016 3.5127,-6.818789 8.6785,-12.397789 6.6121,-7.23205 14.8773,-10.95138 8.4718,-3.92597 17.5636,-4.95912 9.2983,-1.23978 18.5966,0.41326 9.505,1.44641 17.9768,5.16575 4.9592,2.0663 6.1989,6.40552 1.4464,4.33923 0.2067,8.47183 -1.2398,4.13259 -4.7525,6.81878 -3.5127,2.686187 -8.2652,1.859668 -4.9591,-1.033149 -9.2984,-2.066298 -4.3392,-1.23978 -8.6784,-2.0663 -3.3061,-0.61989 -7.2321,-0.20663 -3.7193,0.41326 -7.232,1.44641 -3.3061,0.82652 -6.1989,2.066299 -2.8928,1.033149 -4.3392,2.272928 -1.6531,1.446409 -3.3061,3.719337 -1.4464,2.272928 -1.653,5.165746 -0.4133,3.512707 2.6862,5.785635 3.0994,2.272928 6.6121,3.306077 6.8188,1.446409 14.0508,2.892818 7.2321,1.239779 14.2575,3.719337 7.0254,2.272928 13.0177,5.992265 6.1989,3.719337 10.5381,9.918232 4.7525,5.372376 6.8188,12.191161 2.0663,6.818784 1.4464,13.637569 -0.4133,6.818784 -3.0995,13.224309 -2.6861,6.198895 -7.4386,10.9513813 -3.3061,3.3060774 -7.0254,5.57900553 -3.5128,2.47955797 -7.6453,4.75248617 -8.2652,4.3392265 -17.7702,4.3392265 -9.505,0 -19.01,-2.8928176 -9.5049,-2.6861879 -17.9768,-7.6453039 -8.4718,-5.1657459 -14.464,-11.158011 z"
       id="text72"
       style="font-weight:bold;font-size:187px;font-family:Chalkboard;fill:#071c44"
       transform="translate(221.639 898.97)"
       aria-label="PROGRESSIONS" />
  </g>
  <g
     clip-path="url(#d)"
     id="g75">
    <g
       clip-path="url(#e)"
       id="g74">
      <path
         fill="none"
         stroke="#000"
         stroke-width="16"
         d="m702.478 548.936.346-63.63"
         data-index="72"
         id="path73" />
    </g>
  </g>
  <g
     clip-path="url(#f)"
     id="g77">
    <g
       clip-path="url(#g)"
       id="g76">
      <path
         d="M690.366 559.988c-3.274-8.831-.757-22.702 5.622-30.982 6.38-8.28 14.204-7.834 17.478.997 3.274 8.83.756 22.701-5.623 30.982-6.378 8.28-14.203 7.833-17.477-.997Zm0 0"
         data-index="73"
         id="path75" />
    </g>
  </g>
  <g
     clip-path="url(#h)"
     id="g79">
    <g
       clip-path="url(#i)"
       id="g78">
      <path
         fill="none"
         stroke="#000"
         stroke-width="16"
         d="m1088.073 494.705-13.73-62.132"
         data-index="74"
         id="path77" />
    </g>
  </g>
  <g
     clip-path="url(#j)"
     id="g81">
    <g
       clip-path="url(#k)"
       id="g80">
      <path
         d="M1083.229 509.598c-6.946-6.36-11.044-19.849-9.152-30.128 1.892-10.28 9.056-13.458 16.003-7.098 6.946 6.36 11.043 19.85 9.152 30.129-1.892 10.28-9.057 13.457-16.003 7.097Zm0 0"
         data-index="75"
         id="path79" />
    </g>
  </g>
  <g
     clip-path="url(#l)"
     id="g82">
    <path
       fill="#ff968d"
       d="M1129.132 297.756c38.568 39.15 38.568 102.624 0 141.773a97.725 97.725 0 0 1-139.667 0c-38.568-39.15-38.568-102.623 0-141.773a97.725 97.725 0 0 1 139.667 0Zm0 0"
       data-index="76"
       id="path81" />
  </g>
  <g
     clip-path="url(#m)"
     id="g84">
    <g
       clip-path="url(#n)"
       id="g83">
      <path
         fill="none"
         stroke="#000"
         stroke-width="16"
         d="m780.008 528.596.346-63.63"
         data-index="77"
         id="path82" />
    </g>
  </g>
  <g
     clip-path="url(#o)"
     id="g86">
    <g
       clip-path="url(#p)"
       id="g85">
      <path
         d="M767.896 539.647c-3.274-8.83-.756-22.702 5.623-30.982 6.378-8.28 14.203-7.834 17.477.997 3.274 8.83.757 22.702-5.622 30.982-6.38 8.28-14.204 7.834-17.478-.997Zm0 0"
         data-index="78"
         id="path84" />
    </g>
  </g>
  <g
     clip-path="url(#q)"
     id="g88">
    <g
       clip-path="url(#r)"
       id="g87">
      <path
         fill="none"
         stroke="#000"
         stroke-width="16"
         d="m909.716 508.258.347-63.63"
         data-index="79"
         id="path86" />
    </g>
  </g>
  <g
     clip-path="url(#s)"
     id="g90">
    <g
       clip-path="url(#t)"
       id="g89">
      <path
         d="M897.605 519.31c-3.274-8.831-.757-22.703 5.622-30.983 6.379-8.28 14.204-7.834 17.477.997 3.274 8.83.757 22.702-5.622 30.982-6.379 8.28-14.204 7.834-17.477-.997Zm0 0"
         data-index="80"
         id="path88" />
    </g>
  </g>
  <g
     clip-path="url(#u)"
     id="g92">
    <g
       clip-path="url(#v)"
       id="g91">
      <path
         fill="none"
         stroke="#000"
         stroke-width="16"
         d="m413.388 698.035 29.005-56.635"
         data-index="81"
         id="path90" />
    </g>
  </g>
  <g
     clip-path="url(#w)"
     id="g94">
    <g
       clip-path="url(#x)"
       id="g93">
      <path
         d="M397.594 702.437c1.06-9.358 9.563-20.603 18.99-25.117 9.428-4.514 16.21-.587 15.15 8.772-1.06 9.358-9.563 20.603-18.99 25.117-9.428 4.514-16.21.586-15.15-8.772Zm0 0"
         data-index="82"
         id="path92" />
    </g>
  </g>
  <g
     clip-path="url(#y)"
     id="g96">
    <g
       clip-path="url(#z)"
       id="g95">
      <path
         fill="none"
         stroke="#000"
         stroke-width="16"
         d="m521.338 693.888.346-63.63"
         data-index="83"
         id="path94" />
    </g>
  </g>
  <g
     clip-path="url(#A)"
     id="g98">
    <g
       clip-path="url(#B)"
       id="g97">
      <path
         d="M509.226 704.94c-3.274-8.831-.756-22.702 5.622-30.983 6.38-8.28 14.204-7.833 17.478.997 3.274 8.831.756 22.702-5.622 30.983-6.38 8.28-14.204 7.833-17.478-.998Zm0 0"
         data-index="84"
         id="path96" />
    </g>
  </g>
  <g
     clip-path="url(#C)"
     id="g100">
    <g
       clip-path="url(#D)"
       id="g99">
      <path
         fill="none"
         stroke="#000"
         stroke-width="16"
         d="m609.586 628.874.346-63.63"
         data-index="85"
         id="path98" />
    </g>
  </g>
  <g
     clip-path="url(#E)"
     id="g102">
    <g
       clip-path="url(#F)"
       id="g101">
      <path
         d="M599.583 641.336c-4.425-8.314-3.786-22.397 1.428-31.456 5.215-9.059 13.03-9.663 17.454-1.35 4.426 8.314 3.786 22.398-1.428 31.456-5.215 9.06-13.03 9.663-17.454 1.35Zm0 0"
         data-index="86"
         id="path100" />
    </g>
  </g>
  <g
     clip-path="url(#G)"
     id="g103">
    <path
       fill="#ef91a4"
       d="M977.242 298.84c39.992 40.594 39.992 106.411 0 147.006a101.333 101.333 0 0 1-144.822 0c-39.992-40.595-39.992-106.412 0-147.006a101.333 101.333 0 0 1 144.822 0Zm0 0"
       data-index="87"
       id="path102" />
  </g>
  <g
     clip-path="url(#H)"
     id="g104">
    <path
       fill="#71d4d5"
       d="M837.723 309.926c42.306 42.944 42.306 112.57 0 155.514a107.197 107.197 0 0 1-153.204 0c-42.307-42.944-42.307-112.57 0-155.514a107.197 107.197 0 0 1 153.204 0Zm0 0"
       data-index="88"
       id="path103" />
  </g>
  <g
     clip-path="url(#I)"
     id="g105">
    <path
       fill="#86c36f"
       d="M695.372 363.109c44.62 45.293 44.62 118.728 0 164.022a113.062 113.062 0 0 1-161.586 0c-44.62-45.294-44.62-118.729 0-164.022a113.062 113.062 0 0 1 161.586 0Zm0 0"
       data-index="89"
       style="opacity: 1;"
       id="path104" />
  </g>
  <g
     clip-path="url(#J)"
     id="g107">
    <g
       clip-path="url(#K)"
       id="g106">
      <path
         fill="#fee56c"
         d="M628.942 566.002c-39.85 70.925-136.263 112.941-215.344 93.847-79.08-19.094-110.883-92.069-71.033-162.993 39.851-70.925 136.264-112.941 215.345-93.847 79.08 19.094 110.883 92.069 71.032 162.993Zm0 0"
         data-index="90"
         style="opacity: 1;"
         id="path105" />
    </g>
  </g>
  <g
     clip-path="url(#L)"
     id="g108">
    <path
       d="M456.385 263.84c6.8 6.8 6.8 17.825 0 24.625-6.8 6.8-17.825 6.8-24.625 0-6.8-6.8-6.8-17.825 0-24.625 6.8-6.8 17.825-6.8 24.625 0Zm0 0"
       data-index="91"
       id="path107" />
  </g>
  <g
     clip-path="url(#M)"
     id="g109">
    <path
       fill="none"
       stroke="#000"
       stroke-width="9"
       d="M441.131 277.29c-33.313-100.392-69.667-79.607-109.063 62.355"
       data-index="92"
       id="path108" />
  </g>
  <g
     clip-path="url(#N)"
     id="g110">
    <path
       fill="none"
       stroke="#000"
       stroke-width="9"
       d="M198.973 277.29c33.313-100.392 69.667-79.607 109.063 62.355"
       data-index="93"
       id="path109" />
  </g>
  <g
     clip-path="url(#O)"
     id="g111">
    <path
       fill="#fc8098"
       d="M433.682 344.775c56.178 65.946 56.178 172.866 0 238.812-56.18 65.946-147.263 65.946-203.442 0s-56.179-172.866 0-238.812c56.18-65.946 147.263-65.946 203.442 0Zm0 0"
       data-index="94"
       style="opacity: 1;"
       id="path110" />
  </g>
  <g
     clip-path="url(#P)"
     id="g112">
    <path
       d="M216.814 263.84c6.8 6.8 6.8 17.825 0 24.625-6.8 6.8-17.825 6.8-24.625 0-6.8-6.8-6.8-17.825 0-24.625 6.8-6.8 17.825-6.8 24.625 0Zm0 0"
       data-index="95"
       id="path111" />
  </g>
  <g
     clip-path="url(#Q)"
     id="g113">
    <path
       fill="#fff"
       d="M422.877 418.151c13.609 14.894 13.609 39.043 0 53.937-13.609 14.895-35.673 14.895-49.282 0-13.609-14.894-13.609-39.043 0-53.937 13.609-14.894 35.673-14.894 49.282 0Zm0 0"
       data-index="96"
       style="opacity: 1;"
       id="path112" />
  </g>
  <g
     clip-path="url(#R)"
     id="g114">
    <path
       d="M417.243 424.317c10.498 11.489 10.498 30.117 0 41.606-10.497 11.49-27.517 11.49-38.015 0-10.497-11.49-10.497-30.117 0-41.606 10.498-11.49 27.518-11.49 38.015 0Zm0 0"
       data-index="97"
       id="path113" />
  </g>
  <g
     clip-path="url(#S)"
     id="g115">
    <path
       fill="#fff"
       d="M404.243 426.254c3.318 3.631 3.318 9.519 0 13.15-3.317 3.631-8.697 3.631-12.014 0-3.318-3.631-3.318-9.519 0-13.15 3.317-3.63 8.697-3.63 12.014 0Zm0 0"
       data-index="98"
       id="path114" />
  </g>
  <g
     clip-path="url(#T)"
     id="g116">
    <path
       fill="none"
       stroke="#000"
       stroke-width="9"
       d="M286.746 538.19c33.313 32.688 63.82 30.854 91.522-5.502"
       data-index="99"
       style="opacity: 1;"
       id="path115" />
  </g>
  <g
     clip-path="url(#U)"
     id="g117">
    <path
       fill="#fff"
       d="M291.847 418.151c13.609 14.894 13.609 39.043 0 53.937-13.609 14.895-35.673 14.895-49.282 0-13.609-14.894-13.609-39.043 0-53.937 13.609-14.894 35.673-14.894 49.282 0Zm0 0"
       data-index="100"
       id="path116" />
  </g>
  <g
     clip-path="url(#V)"
     id="g118">
    <path
       d="M286.214 424.317c10.497 11.489 10.497 30.117 0 41.606-10.498 11.49-27.518 11.49-38.016 0-10.497-11.49-10.497-30.117 0-41.606 10.498-11.49 27.518-11.49 38.016 0Zm0 0"
       data-index="101"
       id="path117" />
  </g>
  <g
     clip-path="url(#W)"
     id="g119">
    <path
       fill="#fff"
       d="M273.214 426.254c3.317 3.631 3.317 9.519 0 13.15-3.318 3.631-8.697 3.631-12.015 0-3.318-3.631-3.318-9.519 0-13.15 3.317-3.63 8.697-3.63 12.014 0Zm0 0"
       data-index="102"
       id="path118" />
  </g>
  <g
     clip-path="url(#X)"
     id="g120">
    <path
       fill="none"
       stroke="#000"
       stroke-width="9"
       d="M1056.856 111.738c51.215-36.866 86.494-1.61 105.838 105.766"
       data-index="103"
       id="path119" />
  </g>
  <g
     clip-path="url(#Y)"
     id="g121">
    <path
       fill="none"
       stroke="#000"
       stroke-width="9"
       d="M1273.794 111.738c-51.214-36.866-86.494-1.61-105.838 105.766"
       data-index="104"
       id="path120" />
  </g>
  <g
     clip-path="url(#Z)"
     id="g122">
    <path
       d="M1299 101.922c7.092 7.092 7.092 18.59 0 25.682-7.092 7.092-18.591 7.092-25.683 0-7.092-7.092-7.092-18.59 0-25.682 7.092-7.092 18.591-7.092 25.683 0Zm0 0"
       data-index="105"
       id="path121" />
  </g>
  <g
     clip-path="url(#aa)"
     id="g124">
    <g
       clip-path="url(#ab)"
       id="g123">
      <path
         fill="#ffa2bb"
         d="M1409.354 101.977c62.616-48.886 113.034-24.118 112.612 55.32-.423 79.437-51.525 183.464-114.14 232.35-62.616 48.887-113.034 24.12-112.611-55.319.422-79.437 51.524-183.464 114.139-232.35Zm0 0"
         data-index="106"
         style="opacity: 1;"
         id="path122" />
      <path
         fill="none"
         stroke="#000"
         stroke-width=".5"
         d="M1409.355 101.977c62.615-48.886 113.033-24.118 112.61 55.32-.422 79.437-51.524 183.464-114.14 232.35-62.615 48.887-113.033 24.12-112.61-55.319.422-79.437 51.524-183.465 114.14-232.35Zm0 0"
         data-index="107"
         id="path123" />
    </g>
  </g>
  <g
     clip-path="url(#ac)"
     id="g126">
    <g
       clip-path="url(#ad)"
       id="g125">
      <path
         fill="#ffa2bb"
         d="M1609.444 263.785c78.617 11.398 95.61 64.939 37.954 119.586-57.656 54.648-168.127 89.708-246.744 78.31-78.617-11.399-95.609-64.94-37.953-119.587 57.655-54.648 168.126-89.708 246.743-78.31Zm0 0"
         data-index="108"
         style="opacity: 1; visibility: visible;"
         id="path124" />
      <path
         fill="none"
         stroke="#000"
         stroke-width=".5"
         d="M1609.445 263.785c78.617 11.398 95.609 64.939 37.953 119.586-57.656 54.648-168.127 89.708-246.744 78.31-78.617-11.399-95.61-64.94-37.953-119.587 57.656-54.648 168.127-89.708 246.744-78.31Zm0 0"
         data-index="109"
         id="path125" />
    </g>
  </g>
  <g
     clip-path="url(#ae)"
     id="g128">
    <g
       clip-path="url(#af)"
       id="g127">
      <path
         fill="#fc8098"
         d="M1428.707 415.134c28.988 75.461-11.333 121.759-90.061 103.409-78.727-18.35-166.048-94.4-195.036-169.86-28.988-75.462 11.334-121.76 90.061-103.41 78.727 18.35 166.048 94.4 195.036 169.86Zm0 0"
         data-index="110"
         style="opacity: 1;"
         id="path126" />
    </g>
  </g>
  <g
     clip-path="url(#ag)"
     id="g129">
    <path
       fill="#ffa2bb"
       d="M1257.69 177.248c48.95 37.867 48.95 99.262 0 137.13-48.95 37.866-128.313 37.866-177.263 0-48.95-37.868-48.95-99.263 0-137.13 48.95-37.867 128.313-37.867 177.263 0Zm0 0"
       data-index="111"
       style="opacity: 1;"
       id="path128" />
  </g>
  <g
     clip-path="url(#ah)"
     id="g131">
    <g
       clip-path="url(#ai)"
       id="g130">
      <path
         fill="#ebcd4b"
         d="M1571.695 311.679c37.078 1.685 47.569 25.908 23.432 54.104-24.137 28.197-73.762 49.688-110.84 48.003-37.078-1.685-47.569-25.908-23.432-54.104 24.137-28.197 73.762-49.688 110.84-48.003Zm0 0"
         data-index="112"
         style="opacity: 1;"
         id="path129" />
    </g>
  </g>
  <g
     clip-path="url(#aj)"
     id="g133">
    <g
       clip-path="url(#ak)"
       id="g132">
      <path
         fill="#65bad4"
         d="M1430.122 136.902c33.824-19.343 58.277-3.578 54.617 35.214-3.659 38.792-34.045 85.92-67.869 105.264-33.823 19.344-58.276 3.578-54.616-35.214 3.659-38.792 34.045-85.92 67.868-105.264Zm0 0"
         data-index="113"
         id="path131" />
    </g>
  </g>
  <g
     clip-path="url(#al)"
     id="g134">
    <path
       fill="none"
       stroke="#000"
       stroke-width="9"
       d="M1127.861 278.269c23.248 25.664 43.594 24.6 61.038-3.194"
       data-index="114"
       id="path133" />
  </g>
  <g
     clip-path="url(#am)"
     id="g135">
    <path
       d="M1047.058 101.922c-7.092 7.092-7.092 18.59 0 25.682 7.092 7.092 18.59 7.092 25.682 0 7.092-7.092 7.092-18.59 0-25.682-7.092-7.092-18.59-7.092-25.682 0Zm0 0"
       data-index="115"
       id="path134" />
  </g>
  <g
     clip-path="url(#an)"
     id="g136">
    <path
       fill="#fff"
       d="M1226.431 194.802c11.739 12.848 11.739 33.677 0 46.525-11.738 12.847-30.77 12.847-42.509 0-11.738-12.848-11.738-33.677 0-46.525 11.739-12.847 30.771-12.847 42.509 0Zm0 0"
       data-index="116"
       id="path135" />
  </g>
  <g
     clip-path="url(#ao)"
     id="g137">
    <path
       d="M1221.572 200.12c9.055 9.91 9.055 25.978 0 35.889-9.055 9.91-23.736 9.91-32.79 0-9.055-9.91-9.055-25.978 0-35.889 9.054-9.91 23.735-9.91 32.79 0Zm0 0"
       data-index="117"
       id="path136" />
  </g>
  <g
     clip-path="url(#ap)"
     id="g138">
    <path
       fill="#fff"
       d="M1210.359 201.792c2.861 3.132 2.861 8.21 0 11.342-2.862 3.132-7.502 3.132-10.364 0-2.862-3.132-2.862-8.21 0-11.342 2.862-3.132 7.502-3.132 10.364 0Zm0 0"
       data-index="118"
       id="path137" />
  </g>
  <g
     clip-path="url(#aq)"
     id="g139">
    <path
       fill="#fff"
       d="M1136.184 194.802c11.739 12.848 11.739 33.677 0 46.525-11.738 12.847-30.77 12.847-42.509 0-11.738-12.848-11.738-33.677 0-46.525 11.739-12.847 30.771-12.847 42.509 0Zm0 0"
       data-index="119"
       id="path138" />
  </g>
  <g
     clip-path="url(#ar)"
     id="g140">
    <path
       d="M1131.325 200.12c9.055 9.91 9.055 25.978 0 35.889-9.055 9.91-23.736 9.91-32.79 0-9.055-9.91-9.055-25.978 0-35.889 9.054-9.91 23.735-9.91 32.79 0Zm0 0"
       data-index="120"
       id="path139" />
  </g>
  <g
     clip-path="url(#as)"
     id="g141">
    <path
       fill="#fff"
       d="M1120.112 201.792c2.862 3.132 2.862 8.21 0 11.342-2.862 3.132-7.502 3.132-10.364 0-2.862-3.132-2.862-8.21 0-11.342 2.862-3.132 7.502-3.132 10.364 0Zm0 0"
       data-index="121"
       id="path140" />
  </g>
</svg>
